<svg width="440" height="432" viewBox="0 0 440 432" fill="none" xmlns="http://www.w3.org/2000/svg">
<path d="M37.0015 259.723L45.1146 254.471C45.1146 254.471 49.0539 233.546 46.1275 215.078C42.0194 189.023 24.3114 180.065 17.8772 182.635C11.443 185.205 9.92359 192.952 21.5445 207.959C28.4007 216.832 37.2172 235.581 37.0015 259.723Z" fill="#006FDB"/>
<g opacity="0.3">
<path d="M37.0015 259.723L45.1146 254.471C45.1146 254.471 49.0539 233.546 46.1275 215.078C42.0194 189.023 24.3114 180.065 17.8772 182.635C11.443 185.205 9.92359 192.952 21.5445 207.959C28.4007 216.832 37.2172 235.581 37.0015 259.723Z" fill="white"/>
</g>
<path d="M39.955 249.397H39.8705C39.7185 249.374 39.5816 249.292 39.4888 249.169C39.396 249.047 39.3546 248.893 39.3734 248.74C42.7406 224.354 32.9486 197.698 21.9374 186.94C21.8267 186.832 21.7635 186.684 21.7618 186.53C21.76 186.375 21.8198 186.226 21.928 186.115C22.0362 186.004 22.184 185.941 22.3388 185.939C22.4935 185.938 22.6427 185.997 22.7534 186.106C33.9616 197.051 43.9411 224.148 40.5271 248.89C40.509 249.03 40.441 249.158 40.3359 249.251C40.2307 249.344 40.0954 249.396 39.955 249.397Z" fill="white"/>
<path d="M16.5732 272.92C15.3539 273.614 11.8836 270.941 10.9456 270.294C9.29833 269.171 7.9676 267.643 7.08137 265.857C6.09246 263.82 5.76456 261.525 6.14345 259.292C6.33855 258.115 6.61433 256.952 6.96882 255.812C7.2971 254.687 7.61599 253.561 7.90675 252.436C8.30125 251.346 8.46727 250.187 8.39447 249.031C8.10371 246.724 6.04965 245.111 4.19256 243.713C2.12912 242.175 -0.00934852 240.14 3.07413e-05 237.363C0.147885 235.207 1.00913 233.161 2.44802 231.548C3.77987 229.86 5.35559 228.378 6.55614 226.596C7.50127 225.36 7.99448 223.837 7.95364 222.281C7.82443 221.33 7.50548 220.415 7.01572 219.59C6.07779 217.779 4.74594 216.119 4.07063 214.178C3.39532 212.236 3.48912 209.816 5.00856 208.428C6.24662 207.284 8.10371 207.125 9.7826 207.237C11.3607 207.43 12.8778 207.965 14.2284 208.803C18.6366 211.251 21.1596 216.476 25.8399 218.361C27.6846 218.942 29.5642 219.406 31.4674 219.749C33.3433 220.246 35.266 221.212 36.1571 222.947C37.8735 226.38 34.6845 230.61 35.8945 234.249C36.9637 237.476 40.0964 238.705 41.8503 241.612C42.5672 242.895 42.8563 244.374 42.6757 245.833C42.5226 248.298 41.9185 250.714 40.8936 252.961C39.7364 255.293 38.4365 257.551 37.0012 259.723L16.5732 272.92Z" fill="#006FDB"/>
<g opacity="0.65">
<path d="M16.5732 272.92C15.3539 273.614 11.8836 270.941 10.9456 270.294C9.29833 269.171 7.9676 267.643 7.08137 265.857C6.09246 263.82 5.76456 261.525 6.14345 259.292C6.33855 258.115 6.61433 256.952 6.96882 255.812C7.2971 254.687 7.61599 253.561 7.90675 252.436C8.30125 251.346 8.46727 250.187 8.39447 249.031C8.10371 246.724 6.04965 245.111 4.19256 243.713C2.12912 242.175 -0.00934852 240.14 3.07413e-05 237.363C0.147885 235.207 1.00913 233.161 2.44802 231.548C3.77987 229.86 5.35559 228.378 6.55614 226.596C7.50127 225.36 7.99448 223.837 7.95364 222.281C7.82443 221.33 7.50548 220.415 7.01572 219.59C6.07779 217.779 4.74594 216.119 4.07063 214.178C3.39532 212.236 3.48912 209.816 5.00856 208.428C6.24662 207.284 8.10371 207.125 9.7826 207.237C11.3607 207.43 12.8778 207.965 14.2284 208.803C18.6366 211.251 21.1596 216.476 25.8399 218.361C27.6846 218.942 29.5642 219.406 31.4674 219.749C33.3433 220.246 35.266 221.212 36.1571 222.947C37.8735 226.38 34.6845 230.61 35.8945 234.249C36.9637 237.476 40.0964 238.705 41.8503 241.612C42.5672 242.895 42.8563 244.374 42.6757 245.833C42.5226 248.298 41.9185 250.714 40.8936 252.961C39.7364 255.293 38.4365 257.551 37.0012 259.723L16.5732 272.92Z" fill="white"/>
</g>
<path d="M28.352 266.017C28.2797 266.015 28.2086 265.998 28.1429 265.968C28.0772 265.937 28.0181 265.894 27.9692 265.841C27.9203 265.788 27.8825 265.725 27.8581 265.657C27.8336 265.589 27.8229 265.517 27.8267 265.445C28.7646 243.647 18.4475 219.571 10.944 212.583C10.8528 212.48 10.8031 212.347 10.8047 212.21C10.8064 212.072 10.8592 211.94 10.9529 211.839C11.0466 211.738 11.1745 211.676 11.3116 211.665C11.4486 211.653 11.5851 211.693 11.6944 211.777C19.3103 218.914 29.7964 243.385 28.8772 265.492C28.8704 265.629 28.8129 265.758 28.7158 265.856C28.6187 265.953 28.4891 266.01 28.352 266.017Z" fill="white"/>
<path d="M24.8086 239.37H24.6492C19.4958 237.944 14.2033 237.079 8.86387 236.791C8.7916 236.789 8.72052 236.772 8.65481 236.742C8.58909 236.712 8.53006 236.669 8.48115 236.615C8.43225 236.562 8.39445 236.5 8.36998 236.432C8.34551 236.363 8.33485 236.291 8.33863 236.219C8.33973 236.146 8.35564 236.075 8.38539 236.008C8.41513 235.942 8.45809 235.882 8.51164 235.833C8.56519 235.784 8.62821 235.746 8.69683 235.722C8.76546 235.698 8.83825 235.689 8.91077 235.694C14.3567 235.977 19.7561 236.848 25.015 238.292C25.1526 238.339 25.2665 238.438 25.333 238.567C25.3994 238.696 25.4132 238.847 25.3714 238.986C25.3339 239.104 25.2582 239.205 25.1562 239.275C25.0542 239.345 24.9319 239.378 24.8086 239.37Z" fill="white"/>
<path d="M223.349 431.448C343.002 431.448 440 375.447 440 306.367C440 237.286 343.002 181.285 223.349 181.285C103.695 181.285 6.69727 237.286 6.69727 306.367C6.69727 375.447 103.695 431.448 223.349 431.448Z" fill="#FAFAFA"/>
<path d="M108.211 253.045C154.103 226.558 228.5 226.558 274.383 253.045C313.279 275.499 319.188 309.781 292.147 335.846L393.115 393.397C399.268 396.951 399.268 402.71 393.115 406.265L384.036 411.508C377.883 415.063 368.091 414.781 362.126 410.889L273.961 349.23C228.003 375.492 153.981 375.389 108.248 348.986C62.3272 322.49 62.3272 279.542 108.211 253.045Z" fill="#E6E6E6"/>
<path d="M126.806 20.1489L118.853 24.7448C118.893 24.396 118.915 24.0454 118.918 23.6943V21.387C118.918 17.2789 116.039 15.6188 112.484 17.6353C110.952 18.5701 109.643 19.828 108.648 21.3214C108.057 16.1628 104.015 14.24 99.0906 17.0725C93.7726 20.1489 89.4675 27.6148 89.4675 33.7583V37.2004C89.4306 38.5802 89.7097 39.9501 90.2835 41.2054L83.718 45.0227C82.6718 45.7014 81.802 46.6193 81.1806 47.7006C80.5593 48.7819 80.2041 49.9955 80.1445 51.2412C80.1445 53.5204 81.739 54.4395 83.718 53.3046L126.863 28.3933C127.904 27.7183 128.771 26.8063 129.392 25.732C130.013 24.6577 130.371 23.4516 130.436 22.2124C130.38 19.9332 128.785 19.0141 126.806 20.1489Z" fill="#EBEBEB"/>
<path d="M21.8987 40.8396L26.382 37.3787V27.4929C26.382 19.6519 32.638 10.554 39.4192 6.64281C46.2098 2.72228 51.7154 5.90185 51.7154 13.7335V15.1686C53.1467 12.8499 55.0993 10.8973 57.418 9.46597C62.3046 6.65219 66.2626 8.93135 66.2626 14.5683V15.2248L72.5186 11.6138C75.7357 9.73797 78.3431 11.2574 78.3431 14.9716C78.2339 16.9932 77.6496 18.9606 76.6376 20.7141C75.6256 22.4676 74.2144 23.9578 72.5186 25.0637L21.8987 54.2895C18.6817 56.1653 16.0742 54.6365 16.0742 50.9223C16.1834 48.902 16.7678 46.9359 17.7798 45.1839C18.7919 43.4319 20.2031 41.9435 21.8987 40.8396Z" fill="#EBEBEB"/>
<path d="M88.4258 270.285V298.826C88.4258 314.32 98.6679 329.777 119.143 341.642C160.093 365.287 226.498 365.287 267.448 341.642C287.923 329.815 298.165 314.32 298.165 298.826V270.285C298.165 254.79 287.923 239.333 267.448 227.478C226.498 203.832 160.093 203.832 119.143 227.478C98.6679 239.295 88.4258 254.79 88.4258 270.285ZM288.016 270.285C288.016 282.684 278.909 294.764 262.374 304.312C244.084 314.874 219.557 320.689 193.295 320.689C167.033 320.689 142.507 314.874 124.217 304.312C107.681 294.764 98.5741 282.684 98.5741 270.285C98.5741 257.885 107.681 245.805 124.217 236.257C142.507 225.696 167.033 219.88 193.295 219.88C219.557 219.88 244.093 225.696 262.374 236.257C278.919 245.805 288.016 257.913 288.016 270.285Z" fill="#006FDB"/>
<path opacity="0.2" d="M88.4258 270.285V298.826C88.4258 314.32 98.6679 329.777 119.143 341.642C160.093 365.287 226.498 365.287 267.448 341.642C287.923 329.815 298.165 314.32 298.165 298.826V270.285C298.165 254.79 287.923 239.333 267.448 227.478C226.498 203.832 160.093 203.832 119.143 227.478C98.6679 239.295 88.4258 254.79 88.4258 270.285ZM288.016 270.285C288.016 282.684 278.909 294.764 262.374 304.312C244.084 314.874 219.557 320.689 193.295 320.689C167.033 320.689 142.507 314.874 124.217 304.312C107.681 294.764 98.5741 282.684 98.5741 270.285C98.5741 257.885 107.681 245.805 124.217 236.257C142.507 225.696 167.033 219.88 193.295 219.88C219.557 219.88 244.093 225.696 262.374 236.257C278.919 245.805 288.016 257.913 288.016 270.285Z" fill="white"/>
<path opacity="0.6" d="M298.062 301.489C296.43 311.309 292.106 318.7 274.689 332.291C250.068 351.518 187.724 359.369 151.539 347.429C117.408 336.174 106.518 314.142 106.518 299.032L106.612 290.15C101.341 283.875 98.5648 277.131 98.5648 270.284C98.5648 263.269 101.482 256.356 107.006 249.95L107.128 237.438H105.187C94.0158 247.408 88.4258 258.842 88.4258 270.266V298.807C88.4258 314.301 98.6679 329.758 119.143 341.623C160.093 365.268 226.498 365.268 267.448 341.623C286.75 330.499 296.955 316.065 298.062 301.489Z" fill="#006FDB"/>
<path d="M267.458 227.477C226.499 203.832 160.103 203.832 119.153 227.477C78.2036 251.123 78.1942 289.456 119.153 313.101C160.113 336.746 226.499 336.746 267.458 313.101C308.418 289.456 308.408 251.123 267.458 227.477ZM262.384 304.312C244.095 314.873 219.558 320.689 193.306 320.689C167.053 320.689 142.517 314.873 124.218 304.312C107.683 294.764 98.5753 282.684 98.5753 270.284C98.5753 257.885 107.683 245.805 124.218 236.256C142.508 225.695 167.044 219.88 193.306 219.88C219.568 219.88 244.095 225.695 262.384 236.256C278.92 245.805 288.027 257.894 288.027 270.284C288.027 282.674 278.92 294.764 262.384 304.312Z" fill="#006FDB"/>
<path opacity="0.5" d="M267.458 227.477C226.499 203.832 160.103 203.832 119.153 227.477C78.2036 251.123 78.1942 289.456 119.153 313.101C160.113 336.746 226.499 336.746 267.458 313.101C308.418 289.456 308.408 251.123 267.458 227.477ZM262.384 304.312C244.095 314.873 219.558 320.689 193.306 320.689C167.053 320.689 142.517 314.873 124.218 304.312C107.683 294.764 98.5753 282.684 98.5753 270.284C98.5753 257.885 107.683 245.805 124.218 236.256C142.508 225.695 167.044 219.88 193.306 219.88C219.568 219.88 244.095 225.695 262.384 236.256C278.92 245.805 288.027 257.894 288.027 270.284C288.027 282.674 278.92 294.764 262.384 304.312Z" fill="white"/>
<path d="M288.035 270.284C287.975 275.324 286.559 280.255 283.937 284.56C279.782 277.366 272.456 270.613 262.364 264.807C244.093 254.237 219.548 248.421 193.286 248.421C167.024 248.421 142.497 254.237 124.217 264.807C114.134 270.613 106.819 277.366 102.645 284.56C100.043 280.248 98.6379 275.32 98.5742 270.284C98.5742 257.894 107.681 245.805 124.226 236.247C142.507 225.705 167.043 219.88 193.295 219.88C219.548 219.88 244.103 225.705 262.374 236.247C278.928 245.805 288.035 257.913 288.035 270.284Z" fill="#006FDB"/>
<path opacity="0.3" d="M288.035 270.284C287.975 275.324 286.559 280.255 283.937 284.56C279.782 277.366 272.456 270.613 262.364 264.807C244.093 254.237 219.548 248.421 193.286 248.421C167.024 248.421 142.497 254.237 124.217 264.807C114.134 270.613 106.819 277.366 102.645 284.56C100.043 280.248 98.6379 275.32 98.5742 270.284C98.5742 257.894 107.681 245.805 124.226 236.247C142.507 225.705 167.043 219.88 193.295 219.88C219.548 219.88 244.103 225.705 262.374 236.247C278.928 245.805 288.035 257.913 288.035 270.284Z" fill="white"/>
<path opacity="0.6" d="M124.227 236.247C107.681 245.805 98.5742 257.894 98.5742 270.284C98.6408 275.321 100.049 280.249 102.654 284.56C106.837 277.366 114.153 270.613 124.227 264.807C128.486 262.371 132.912 260.236 137.47 258.42C133.474 259.967 121.206 263.916 125.68 252.22C130.998 238.329 156.951 223.285 176.019 220.79C156.407 222.732 138.427 228.059 124.227 236.247Z" fill="#006FDB"/>
<path opacity="0.4" d="M262.383 249.181C244.093 238.62 219.557 232.805 193.304 232.805C167.052 232.805 142.506 238.62 124.217 249.181C110.579 257.06 102.007 266.664 99.418 276.747C102.007 286.829 110.579 296.443 124.217 304.312C142.516 314.874 167.042 320.689 193.304 320.689C219.566 320.689 244.093 314.874 262.383 304.312C276.029 296.434 284.602 286.829 287.181 276.747C284.611 266.664 276.029 257.06 262.383 249.181Z" fill="white"/>
<path d="M117.211 283.294C123.073 287.889 129.723 290.797 136.504 293.104C143.304 295.356 150.269 297.075 157.335 298.244C171.456 300.537 185.777 301.354 200.067 300.683C207.205 300.364 214.352 299.698 221.452 298.741C228.53 297.79 235.543 296.409 242.452 294.605C249.328 292.885 255.98 290.367 262.271 287.101C263.824 286.274 265.327 285.356 266.773 284.353C268.225 283.363 269.601 282.265 270.89 281.071C272.191 279.87 273.352 278.526 274.351 277.066C275.385 275.565 276.174 273.909 276.687 272.16C276.717 274.078 276.399 275.984 275.749 277.788C275.06 279.601 274.16 281.326 273.066 282.928C271.985 284.541 270.754 286.048 269.389 287.43C268.038 288.817 266.6 290.117 265.084 291.322C258.972 295.981 252.197 299.699 244.985 302.352C237.873 305.032 230.538 307.075 223.065 308.458C215.632 309.865 208.111 310.758 200.555 311.131C185.389 311.924 170.194 310.306 155.535 306.338C148.201 304.329 141.119 301.497 134.422 297.897C131.087 296.069 127.917 293.953 124.949 291.575C124.208 290.985 123.514 290.337 122.801 289.7C122.088 289.062 121.413 288.415 120.766 287.73C119.459 286.353 118.27 284.869 117.211 283.294Z" fill="white"/>
<path d="M264.334 331.268C264.46 328.718 265.187 326.233 266.455 324.017C267.723 321.8 269.496 319.914 271.631 318.513C273.638 317.34 275.467 317.218 276.799 317.969L300.172 331.334C301.495 332.094 302.32 333.735 302.329 336.024C302.201 338.574 301.474 341.058 300.206 343.274C298.938 345.49 297.165 347.376 295.032 348.78C293.006 349.961 291.168 350.083 289.836 349.314L266.472 335.958C265.178 335.264 264.343 333.623 264.334 331.268Z" fill="#37474F"/>
<path d="M266.519 336.024C265.178 335.264 264.343 333.623 264.334 331.268C264.367 329.37 264.792 327.499 265.581 325.772L299.169 345.018C298.076 346.555 296.685 347.857 295.079 348.845C293.053 350.027 291.215 350.149 289.883 349.38L266.519 336.024Z" fill="#263238"/>
<path d="M379.756 369.348L305.378 331.447L305.284 331.39C303.559 330.452 301.214 330.621 298.635 332.122C293.363 335.198 289.115 342.627 289.143 348.723C289.143 351.781 290.24 353.919 291.956 354.914L361.86 399.934C363.871 401.207 366.119 402.062 368.467 402.448C370.816 402.834 373.219 402.743 375.532 402.18C377.844 401.617 380.02 400.594 381.929 399.172C383.838 397.751 385.442 395.959 386.643 393.904C387.845 391.849 388.62 389.574 388.923 387.213C389.226 384.852 389.051 382.454 388.407 380.162C387.764 377.871 386.665 375.732 385.177 373.874C383.689 372.016 381.842 370.477 379.746 369.348H379.756Z" fill="#455A64"/>
<path d="M291.965 354.932L361.869 399.953C364.467 401.584 367.446 402.512 370.511 402.646C373.577 402.78 376.624 402.115 379.355 400.716C382.087 399.318 384.407 397.233 386.09 394.668C387.773 392.102 388.761 389.143 388.956 386.081C387.615 391.905 377.992 396.858 366.061 390.189C354.131 383.52 309.936 355.579 289.855 344.015C289.383 345.534 289.137 347.114 289.123 348.704C289.132 351.8 290.239 353.938 291.965 354.932Z" fill="#37474F"/>
<path d="M291.964 354.932C290.22 353.938 289.15 351.8 289.15 348.742C289.15 342.645 293.371 335.217 298.642 332.141C301.221 330.64 303.566 330.481 305.292 331.409L311.858 334.748C310.085 333.81 307.693 333.96 305.039 335.499C299.636 338.65 295.275 346.275 295.303 352.531C295.303 355.664 296.382 357.906 298.164 358.919" fill="#006FDB"/>
<path opacity="0.2" d="M298.154 358.918C296.372 357.906 295.34 355.664 295.294 352.531C295.304 350.874 295.56 349.227 296.053 347.645C293.812 346.313 291.72 345.093 289.854 344.015C289.617 344.799 289.432 345.598 289.3 346.407C289.244 346.8 289.197 347.194 289.16 347.588C289.16 347.982 289.113 348.367 289.16 348.742C289.16 351.8 290.257 353.938 291.973 354.932L298.154 358.918Z" fill="black"/>
<path d="M114.11 398.377L57.8344 370.23L35.418 380.153L114.11 398.377Z" fill="#006FDB"/>
<g opacity="0.15">
<path d="M114.11 398.377L57.8344 370.23L35.418 380.153L114.11 398.377Z" fill="white"/>
</g>
<path d="M114.11 398.377L64.541 365.24L73.4138 352.484L114.11 398.377Z" fill="#006FDB"/>
<g opacity="0.15">
<path d="M114.11 398.377L64.541 365.24L73.4138 352.484L114.11 398.377Z" fill="white"/>
</g>
<path d="M64.541 365.24L65.4696 374.047L114.11 398.377L64.541 365.24Z" fill="#006FDB"/>
<g opacity="0.2">
<path d="M64.541 365.24L65.4696 374.047L114.11 398.377L64.541 365.24Z" fill="black"/>
</g>
<path d="M56.5116 363.552C56.6478 363.549 56.7781 363.495 56.8774 363.402C56.9922 363.289 57.0614 363.137 57.0717 362.976C57.0821 362.816 57.033 362.657 56.9336 362.53L55.855 361.085C55.8113 361.024 55.755 360.973 55.69 360.936C55.625 360.899 55.5528 360.876 55.4781 360.869C55.4035 360.862 55.3282 360.87 55.2573 360.895C55.1864 360.919 55.1216 360.959 55.0672 361.01C54.9528 361.123 54.8831 361.274 54.871 361.434C54.859 361.594 54.9053 361.754 55.0015 361.882C55.3579 362.361 55.7237 362.82 56.0895 363.299C56.1355 363.371 56.1976 363.431 56.2708 363.475C56.344 363.519 56.4264 363.545 56.5116 363.552Z" fill="#455A64"/>
<path d="M51.5687 357.155C50.8997 356.18 50.2525 355.195 49.6272 354.201C49.5426 354.064 49.5103 353.902 49.5361 353.743C49.562 353.584 49.6443 353.441 49.7679 353.338C49.8263 353.292 49.8939 353.259 49.9663 353.241C50.0386 353.223 50.1139 353.222 50.187 353.236C50.2601 353.25 50.3292 353.28 50.3896 353.324C50.45 353.367 50.5003 353.423 50.537 353.488C51.1654 354.473 51.8032 355.448 52.4129 356.414C52.5047 356.546 52.5441 356.708 52.5233 356.867C52.5025 357.027 52.423 357.173 52.3003 357.277C52.2093 357.356 52.0926 357.4 51.972 357.399C51.891 357.391 51.8128 357.364 51.7431 357.322C51.6734 357.28 51.6138 357.223 51.5687 357.155ZM46.6071 349.098C46.035 348.057 45.4722 346.998 44.9376 345.938C44.8641 345.795 44.8455 345.63 44.8852 345.475C44.925 345.319 45.0204 345.184 45.1533 345.094C45.2179 345.054 45.2902 345.028 45.3655 345.019C45.4408 345.01 45.5171 345.017 45.5893 345.041C45.6615 345.064 45.7278 345.102 45.7837 345.154C45.8395 345.205 45.8837 345.267 45.913 345.337C46.4383 346.378 46.9916 347.42 47.5544 348.451C47.6343 348.591 47.6603 348.755 47.6274 348.912C47.5946 349.069 47.5052 349.209 47.3762 349.305C47.2886 349.359 47.1882 349.388 47.0854 349.389C46.9871 349.388 46.8909 349.36 46.8068 349.309C46.7227 349.258 46.6538 349.185 46.6071 349.098ZM42.4239 340.507C41.955 339.391 41.486 338.265 41.0921 337.149C41.0345 337.001 41.0333 336.838 41.0886 336.689C41.144 336.54 41.252 336.417 41.3922 336.343C41.4621 336.313 41.5374 336.298 41.6132 336.299C41.6891 336.301 41.7639 336.318 41.8328 336.349C41.9017 336.381 41.9632 336.427 42.0133 336.484C42.0634 336.541 42.1011 336.608 42.1238 336.68C42.5271 337.778 42.9679 338.884 43.4369 339.982C43.4999 340.129 43.5071 340.294 43.457 340.446C43.4069 340.598 43.303 340.726 43.1649 340.807C43.092 340.844 43.0118 340.863 42.9304 340.863C42.8204 340.86 42.7138 340.825 42.6237 340.761C42.5337 340.698 42.4643 340.609 42.4239 340.507ZM39.1787 331.428C38.8411 330.256 38.5222 329.064 38.2408 327.911C38.196 327.758 38.2119 327.593 38.2853 327.452C38.3587 327.31 38.4839 327.203 38.6347 327.151C38.7081 327.132 38.7847 327.128 38.8597 327.139C38.9348 327.151 39.0066 327.177 39.0708 327.218C39.1351 327.258 39.1903 327.312 39.233 327.374C39.2758 327.437 39.3052 327.508 39.3194 327.582C39.5914 328.727 39.9009 329.89 40.2573 331.043C40.3051 331.194 40.295 331.357 40.2292 331.501C40.1633 331.645 40.0463 331.759 39.9009 331.822H39.7321C39.6099 331.824 39.4902 331.787 39.3906 331.716C39.291 331.645 39.2168 331.544 39.1787 331.428ZM37.0027 321.945C36.8151 320.754 36.6463 319.535 36.5056 318.325C36.4782 318.17 36.513 318.01 36.6025 317.88C36.692 317.75 36.829 317.661 36.984 317.631C37.1378 317.621 37.2895 317.671 37.4069 317.771C37.5243 317.87 37.5981 318.012 37.6124 318.166C37.7437 319.357 37.9125 320.557 38.1001 321.73C38.1317 321.882 38.1036 322.041 38.0216 322.174C37.9396 322.307 37.81 322.403 37.6593 322.443H37.5561C37.4209 322.436 37.2921 322.383 37.1914 322.292C37.0906 322.202 37.024 322.079 37.0027 321.945ZM36.0648 312.229C36.0648 311.291 36.0085 310.353 36.0085 309.349V308.561C36.0047 308.485 36.0161 308.409 36.0418 308.337C36.0676 308.265 36.1073 308.198 36.1587 308.142C36.2101 308.085 36.2722 308.039 36.3414 308.006C36.4106 307.974 36.4855 307.955 36.5619 307.952C36.7171 307.964 36.8612 308.036 36.9631 308.154C37.0649 308.272 37.1162 308.425 37.1059 308.58V309.349C37.1059 310.287 37.1059 311.225 37.1059 312.163C37.119 312.319 37.0704 312.475 36.9705 312.596C36.8706 312.716 36.7273 312.793 36.5713 312.81C36.4304 312.792 36.3011 312.723 36.2078 312.615C36.1145 312.508 36.0636 312.371 36.0648 312.229ZM36.8058 303.14C36.6522 303.112 36.5151 303.027 36.4227 302.901C36.3302 302.776 36.2894 302.62 36.3087 302.465C36.4118 301.255 36.5431 300.026 36.6932 298.816C36.6989 298.74 36.7202 298.665 36.7559 298.597C36.7915 298.529 36.8408 298.469 36.9005 298.42C36.9603 298.372 37.0293 298.336 37.1033 298.316C37.1774 298.295 37.2549 298.29 37.331 298.3C37.4842 298.332 37.619 298.422 37.7066 298.552C37.7942 298.682 37.8277 298.84 37.8 298.994C37.6499 300.186 37.5186 301.396 37.4154 302.577C37.4088 302.723 37.3486 302.861 37.2465 302.965C37.1443 303.069 37.0074 303.131 36.862 303.14H36.8058ZM38.1189 293.554C37.9687 293.507 37.8424 293.403 37.7657 293.266C37.689 293.128 37.6677 292.966 37.7062 292.813C37.95 291.622 38.2314 290.431 38.5409 289.259C38.555 289.184 38.5844 289.114 38.6273 289.051C38.6702 288.989 38.7256 288.936 38.79 288.896C38.8545 288.857 38.9265 288.831 39.0015 288.821C39.0765 288.81 39.1528 288.816 39.2256 288.837C39.3741 288.894 39.4958 289.004 39.567 289.147C39.6381 289.289 39.6535 289.453 39.6102 289.606C39.31 290.75 39.0287 291.932 38.7848 293.095C38.7652 293.224 38.7012 293.343 38.6036 293.43C38.506 293.518 38.381 293.568 38.2502 293.573L38.1189 293.554ZM40.6513 284.278C40.5086 284.209 40.3974 284.088 40.34 283.941C40.2826 283.793 40.2832 283.629 40.3417 283.481C40.7451 282.356 41.1953 281.221 41.6642 280.114C41.6907 280.044 41.7315 279.98 41.7839 279.926C41.8364 279.872 41.8994 279.83 41.969 279.802C42.0386 279.774 42.1133 279.76 42.1884 279.762C42.2634 279.764 42.3373 279.782 42.4052 279.814C42.5418 279.896 42.6445 280.025 42.6944 280.176C42.7443 280.328 42.7382 280.492 42.6772 280.639C42.2082 281.727 41.7393 282.834 41.3735 283.941C41.3383 284.051 41.2697 284.147 41.1772 284.216C41.0847 284.285 40.9729 284.323 40.8576 284.325C40.7859 284.328 40.7148 284.312 40.6513 284.278ZM44.5061 275.565C44.374 275.472 44.2809 275.333 44.2445 275.176C44.2082 275.018 44.2312 274.853 44.3092 274.712C44.8813 273.67 45.4816 272.629 46.0912 271.626C46.1273 271.559 46.1772 271.501 46.2377 271.456C46.2982 271.41 46.3678 271.379 46.4417 271.363C46.5156 271.347 46.5922 271.347 46.666 271.363C46.7399 271.379 46.8094 271.411 46.8697 271.457C46.9932 271.559 47.0761 271.703 47.1036 271.861C47.1311 272.019 47.1014 272.182 47.0198 272.32C46.4101 273.305 45.8192 274.327 45.2659 275.349C45.2212 275.438 45.153 275.513 45.0687 275.566C44.9843 275.619 44.8871 275.648 44.7875 275.649C44.6875 275.649 44.5898 275.62 44.5061 275.565ZM49.4865 267.602C49.3728 267.491 49.3035 267.342 49.2914 267.183C49.2793 267.024 49.3253 266.867 49.4209 266.739C50.1243 265.801 50.8653 264.863 51.6062 263.982C51.6547 263.924 51.715 263.878 51.783 263.847C51.8511 263.815 51.9252 263.799 52.0002 263.799C52.0752 263.799 52.1493 263.815 52.2173 263.847C52.2853 263.878 52.3457 263.924 52.3941 263.982C52.5009 264.102 52.5599 264.257 52.5599 264.418C52.5599 264.579 52.5009 264.734 52.3941 264.854C51.6625 265.726 50.9403 266.627 50.2462 267.555C50.1973 267.624 50.1326 267.681 50.0576 267.72C49.9826 267.759 49.8994 267.78 49.8148 267.78C49.7432 267.779 49.6728 267.762 49.6081 267.731C49.5434 267.701 49.486 267.657 49.4396 267.602H49.4865ZM55.5174 260.586C55.4106 260.466 55.3516 260.311 55.3516 260.15C55.3516 259.989 55.4106 259.834 55.5174 259.714C56.3428 258.898 57.1963 258.101 58.0498 257.351C58.1061 257.3 58.1725 257.263 58.2446 257.241C58.3166 257.219 58.3926 257.212 58.4673 257.222C58.542 257.232 58.6138 257.258 58.6777 257.298C58.7416 257.337 58.7962 257.391 58.8376 257.454C58.9284 257.586 58.9689 257.747 58.9517 257.907C58.9345 258.067 58.8608 258.216 58.7439 258.326C57.8997 259.058 57.065 259.836 56.249 260.633C56.1528 260.732 56.0213 260.79 55.8832 260.793C55.8033 260.791 55.7248 260.772 55.6534 260.736C55.582 260.701 55.5195 260.649 55.4705 260.586H55.5174ZM62.4205 254.649C62.3436 254.51 62.3183 254.348 62.3492 254.192C62.3801 254.036 62.4651 253.895 62.5894 253.796C63.5273 253.12 64.4652 252.492 65.4031 251.92C65.4673 251.882 65.5389 251.858 65.6131 251.85C65.6874 251.841 65.7625 251.849 65.8335 251.872C65.9045 251.895 65.9697 251.933 66.0249 251.983C66.0801 252.034 66.1239 252.095 66.1535 252.164C66.2264 252.305 66.2446 252.468 66.2049 252.622C66.1651 252.776 66.07 252.91 65.9377 252.999C64.9998 253.561 64.0619 254.18 63.124 254.874C63.0361 254.936 62.9312 254.969 62.8238 254.968C62.728 254.957 62.6365 254.922 62.5578 254.867C62.479 254.811 62.4157 254.736 62.3736 254.649H62.4205Z" fill="#455A64"/>
<path d="M70.6748 250.597H70.8436C71.3391 250.41 71.8509 250.268 72.3725 250.175C72.5264 250.142 72.6612 250.049 72.7487 249.918C72.8361 249.787 72.8694 249.627 72.8414 249.472C72.8356 249.396 72.8145 249.322 72.7796 249.254C72.7446 249.186 72.6965 249.126 72.6379 249.077C72.5793 249.028 72.5116 248.991 72.4386 248.969C72.3656 248.946 72.2889 248.939 72.213 248.947C71.632 249.055 71.061 249.212 70.506 249.416C70.3575 249.475 70.237 249.588 70.169 249.733C70.1011 249.877 70.0908 250.042 70.1402 250.194C70.1756 250.309 70.2464 250.41 70.3423 250.482C70.4383 250.555 70.5546 250.595 70.6748 250.597Z" fill="#455A64"/>
<path d="M334.044 34.8275L276.361 17.1476L320.8 47.6771L334.044 34.8275Z" fill="#006FDB"/>
<path opacity="0.15" d="M334.044 34.8275L276.361 17.1476L320.8 47.6771L334.044 34.8275Z" fill="white"/>
<path d="M276.361 17.1476L338.443 27.1365L351.686 14.2869L276.361 17.1476Z" fill="#006FDB"/>
<path opacity="0.15" d="M276.361 17.1476L338.443 27.1365L351.686 14.2869L276.361 17.1476Z" fill="white"/>
<path d="M338.443 27.1365L338.499 42.481L334.044 34.8275L276.361 17.1476L338.443 27.1365Z" fill="#006FDB"/>
<path opacity="0.2" d="M338.443 27.1365L338.499 42.481L334.044 34.8275L276.361 17.1476L338.443 27.1365Z" fill="black"/>
<path d="M338.498 42.481L329.625 39.1138L334.043 34.8275L338.498 42.481Z" fill="#006FDB"/>
<path opacity="0.2" d="M334.043 34.8275L329.625 39.1138L331.041 39.6484L334.043 34.8275Z" fill="black"/>
<path d="M350.137 32.1263C350.083 32.1663 350.038 32.2169 350.004 32.2749C349.971 32.333 349.949 32.3973 349.94 32.4639C349.921 32.624 349.96 32.7858 350.049 32.92C350.138 33.0541 350.273 33.1519 350.428 33.1955L352.135 33.6551C352.207 33.6776 352.283 33.6843 352.357 33.6745C352.431 33.6648 352.503 33.6389 352.566 33.5987C352.63 33.5585 352.684 33.505 352.724 33.4418C352.765 33.3787 352.791 33.3074 352.801 33.233C352.824 33.0751 352.789 32.9145 352.702 32.7802C352.616 32.6459 352.485 32.547 352.332 32.5014L350.606 32.0419C350.527 32.0187 350.443 32.0143 350.362 32.0289C350.281 32.0436 350.204 32.0769 350.137 32.1263Z" fill="#455A64"/>
<path d="M357.951 34.2178C359.067 34.593 360.183 34.9869 361.281 35.3902C361.431 35.4472 361.556 35.5559 361.634 35.6969C361.711 35.8379 361.735 36.0019 361.703 36.1593C361.683 36.2319 361.648 36.2995 361.601 36.3574C361.553 36.4154 361.493 36.4624 361.425 36.4953C361.358 36.5282 361.284 36.5462 361.209 36.5481C361.134 36.55 361.059 36.5358 360.99 36.5064C359.902 36.1031 358.795 35.7185 357.688 35.3433C357.538 35.2919 357.411 35.1874 357.332 35.0493C357.252 34.9113 357.226 34.7491 357.257 34.593C357.279 34.4727 357.346 34.3653 357.445 34.2929C357.516 34.239 357.6 34.2039 357.688 34.1908C357.777 34.1777 357.867 34.187 357.951 34.2178ZM366.777 37.6131C367.874 38.1009 368.953 38.5511 370.022 39.1232C370.167 39.1909 370.282 39.3098 370.344 39.457C370.406 39.6042 370.412 39.7693 370.36 39.9204C370.332 39.9904 370.289 40.0537 370.235 40.1061C370.181 40.1585 370.116 40.1989 370.046 40.2246C369.975 40.2503 369.899 40.2607 369.824 40.2551C369.749 40.2496 369.676 40.2282 369.609 40.1924C368.559 39.6766 367.49 39.1795 366.411 38.7105C366.266 38.6447 366.149 38.529 366.082 38.3844C366.015 38.2399 366.002 38.076 366.045 37.9226C366.076 37.8214 366.139 37.7327 366.224 37.6694C366.302 37.6111 366.395 37.5751 366.492 37.5652C366.59 37.5553 366.688 37.5719 366.777 37.6131ZM375.312 41.9182C376.363 42.5185 377.394 43.1469 378.407 43.7941C378.542 43.8778 378.642 44.0075 378.689 44.1593C378.735 44.311 378.725 44.4745 378.66 44.6194C378.623 44.6858 378.572 44.7436 378.511 44.7892C378.45 44.8347 378.38 44.8669 378.306 44.8837C378.232 44.9005 378.155 44.9015 378.08 44.8867C378.006 44.8719 377.935 44.8415 377.873 44.7976C376.878 44.1692 375.856 43.5596 374.824 42.9218C374.685 42.8442 374.58 42.7181 374.528 42.5676C374.476 42.417 374.481 42.2526 374.543 42.1058C374.574 42.0277 374.626 41.9595 374.693 41.9088C374.786 41.8497 374.894 41.8191 375.004 41.8207C375.114 41.8224 375.221 41.8563 375.312 41.9182ZM383.397 47.18C384.382 47.9022 385.348 48.6525 386.276 49.4029C386.402 49.4998 386.487 49.6407 386.513 49.7973C386.539 49.9539 386.505 50.1145 386.417 50.247C386.371 50.3077 386.312 50.358 386.245 50.3947C386.178 50.4313 386.104 50.4534 386.028 50.4596C385.952 50.4658 385.876 50.4559 385.804 50.4306C385.732 50.4053 385.666 50.3651 385.61 50.3127C384.673 49.5717 383.735 48.8401 382.797 48.1273C382.665 48.0359 382.573 47.8983 382.538 47.7419C382.503 47.5855 382.529 47.4217 382.609 47.2831C382.636 47.234 382.675 47.1922 382.722 47.1612C382.822 47.0936 382.941 47.0591 383.062 47.0625C383.183 47.0658 383.3 47.1069 383.397 47.18ZM390.853 53.4453C391.735 54.2801 392.607 55.143 393.452 56.0246C393.56 56.1381 393.621 56.2894 393.621 56.4467C393.621 56.604 393.56 56.7552 393.452 56.8688C393.397 56.9232 393.333 56.9664 393.262 56.9959C393.192 57.0254 393.116 57.0406 393.039 57.0406C392.962 57.0406 392.886 57.0254 392.815 56.9959C392.744 56.9664 392.68 56.9232 392.626 56.8688C391.801 56.0059 390.938 55.1523 390.075 54.3363C389.957 54.2316 389.884 54.086 389.87 53.9291C389.856 53.7723 389.903 53.6161 390 53.4922L390.075 53.4172C390.185 53.3247 390.326 53.2764 390.47 53.2816C390.613 53.2868 390.75 53.3452 390.853 53.4453ZM397.503 60.5923C398.113 61.3333 398.704 62.0836 399.295 62.8527L399.764 63.4811C399.862 63.601 399.909 63.7548 399.895 63.9092C399.881 64.0636 399.807 64.2063 399.689 64.3065C399.625 64.3505 399.553 64.3812 399.477 64.397C399.401 64.4128 399.323 64.4133 399.247 64.3984C399.171 64.3836 399.099 64.3537 399.035 64.3105C398.97 64.2674 398.915 64.2118 398.873 64.1471L398.404 63.528C397.832 62.7777 397.25 62.0367 396.65 61.3051C396.542 61.1932 396.481 61.0435 396.481 60.8878C396.481 60.732 396.542 60.5823 396.65 60.4704C396.71 60.4166 396.781 60.3758 396.857 60.3507C396.934 60.3257 397.015 60.3168 397.095 60.3248C397.175 60.3327 397.253 60.3572 397.323 60.3968C397.394 60.4365 397.455 60.4902 397.503 60.5548V60.5923ZM402.427 68.2833C402.565 68.2107 402.726 68.1936 402.876 68.2355C403.026 68.2773 403.154 68.375 403.234 68.5084C403.881 69.5401 404.519 70.5906 405.11 71.6505C405.151 71.7149 405.179 71.7868 405.191 71.862C405.204 71.9373 405.202 72.0143 405.184 72.0886C405.167 72.1629 405.134 72.2329 405.09 72.2946C405.045 72.3563 404.988 72.4083 404.922 72.4477C404.78 72.5113 404.618 72.5187 404.47 72.4682C404.322 72.4178 404.199 72.3133 404.125 72.1757C403.525 71.1346 402.896 70.0935 402.249 69.0899C402.166 68.9708 402.131 68.8247 402.15 68.6806C402.169 68.5366 402.241 68.4048 402.352 68.3115L402.427 68.2833ZM407.183 76.7247C407.332 76.6708 407.497 76.6756 407.643 76.7383C407.789 76.801 407.906 76.9168 407.971 77.0623C408.486 78.1597 408.993 79.2758 409.453 80.3919C409.485 80.4607 409.503 80.5352 409.506 80.6112C409.509 80.6872 409.497 80.7629 409.47 80.8339C409.442 80.9049 409.401 80.9697 409.348 81.0243C409.295 81.0789 409.232 81.1222 409.162 81.1517C409.009 81.195 408.845 81.1796 408.703 81.1085C408.56 81.0373 408.45 80.9156 408.393 80.7671C407.942 79.6697 407.455 78.5724 406.939 77.5031C406.874 77.3868 406.853 77.2515 406.879 77.121C406.905 76.9905 406.976 76.8733 407.08 76.7903C407.104 76.7395 407.139 76.6947 407.183 76.659V76.7247ZM410.794 85.6349C410.95 85.6054 411.111 85.6352 411.247 85.7184C411.382 85.8017 411.481 85.9325 411.525 86.0852C411.882 87.2294 412.219 88.4018 412.51 89.5649C412.533 89.637 412.54 89.713 412.531 89.788C412.521 89.863 412.497 89.9352 412.458 89.9999C412.419 90.0646 412.366 90.1203 412.304 90.1633C412.242 90.2064 412.172 90.2357 412.097 90.2495C411.941 90.27 411.782 90.2313 411.652 90.1412C411.522 90.0511 411.43 89.9159 411.394 89.7618C411.103 88.6176 410.775 87.4639 410.456 86.3478C410.416 86.2398 410.411 86.1222 410.442 86.0113C410.472 85.9004 410.536 85.8016 410.625 85.7287C410.667 85.6625 410.725 85.6078 410.794 85.5693V85.6349ZM413.045 94.8735C413.205 94.8696 413.362 94.9247 413.485 95.0284C413.607 95.1321 413.688 95.2772 413.711 95.4363C413.898 96.6087 414.048 97.7999 414.17 98.9816C414.18 99.0551 414.173 99.1298 414.152 99.2006C414.13 99.2715 414.094 99.3369 414.045 99.3927C413.996 99.4485 413.936 99.4934 413.869 99.5244C413.802 99.5554 413.729 99.5718 413.654 99.5725C413.494 99.5708 413.339 99.5094 413.222 99.4001C413.104 99.2909 413.031 99.1417 413.017 98.9816C412.895 97.828 412.754 96.665 412.566 95.5113C412.55 95.4142 412.559 95.3142 412.593 95.2219C412.628 95.1295 412.687 95.0481 412.763 94.9861C412.835 94.8977 412.934 94.8352 413.045 94.8079V94.8735Z" fill="#455A64"/>
<path d="M423.313 244.623C420.799 243.122 417.254 243.328 413.315 245.561L341.882 286.829C334.257 291.228 328.066 301.696 328.066 310.203C328.066 314.358 329.548 317.265 331.949 318.644L339.612 323.062C342.117 324.487 345.615 324.262 349.498 322.02L420.94 280.752C428.565 276.353 434.746 265.886 434.746 257.379C434.746 253.252 433.283 250.335 430.901 248.937C429.597 248.224 424.57 245.373 423.313 244.623Z" fill="#E0E0E0"/>
<path d="M343.157 323.568C338.843 323.568 336.16 320.154 336.16 314.667C336.16 306.329 342.247 296.021 349.732 291.707L421.174 250.438C423.013 249.297 425.117 248.651 427.28 248.562C431.594 248.562 434.277 251.976 434.277 257.463C434.277 265.811 428.189 276.109 420.705 280.433L349.263 321.702C347.424 322.844 345.32 323.487 343.157 323.568Z" fill="#FAFAFA"/>
<path d="M427.28 248.994C431.304 248.994 433.845 252.229 433.845 257.435C433.845 265.632 427.861 275.753 420.508 279.945L349.066 321.214C347.299 322.317 345.276 322.944 343.195 323.033C342.304 323.063 341.418 322.889 340.605 322.523C339.792 322.157 339.074 321.61 338.505 320.923C337.173 319.094 336.51 316.862 336.629 314.601C336.629 306.413 342.613 296.293 349.967 292.091L421.409 250.822C423.176 249.719 425.199 249.093 427.28 249.003M427.28 248.065C425.032 248.15 422.846 248.823 420.94 250.016L349.498 291.285C341.872 295.693 335.691 306.151 335.691 314.658C335.691 320.614 338.721 324.037 343.195 324.037C345.441 323.95 347.626 323.281 349.535 322.095L420.977 280.827C428.602 276.428 434.783 265.961 434.783 257.454C434.783 251.498 431.754 248.074 427.28 248.074V248.065Z" fill="#EBEBEB"/>
<path d="M360.697 300.458C360.988 299.914 360.941 299.351 360.697 299.201L358.306 297.822C358.255 297.796 358.198 297.782 358.141 297.782C358.084 297.782 358.028 297.796 357.977 297.822L355.782 298.666L355.06 297.128C355.024 297.052 354.965 296.99 354.891 296.95L352.5 295.562C352.2 295.393 351.703 295.777 351.506 296.415L350.014 301.302C349.933 301.596 349.763 301.858 349.527 302.052L346.197 304.631C345.662 305.035 345.456 306.029 345.84 306.301L348.251 308.045C348.334 308.131 348.395 308.236 348.427 308.35C348.46 308.465 348.464 308.586 348.439 308.702L347.866 313.457C347.82 313.804 347.923 314.039 348.082 314.123L350.474 315.511C350.661 315.614 350.943 315.511 351.196 315.202L354.179 311.394C354.241 311.29 354.329 311.203 354.434 311.142C354.539 311.082 354.658 311.049 354.779 311.047L357.771 311.375C358.24 311.441 358.793 310.578 358.709 309.931L358.137 305.832C358.111 305.529 358.176 305.225 358.324 304.96L360.697 300.458Z" fill="#006FDB"/>
<path opacity="0.15" d="M360.671 299.182C360.619 299.158 360.563 299.146 360.506 299.146C360.45 299.146 360.394 299.158 360.342 299.182L357.003 300.458C356.96 300.479 356.913 300.491 356.864 300.493C356.816 300.495 356.768 300.487 356.723 300.47C356.678 300.452 356.637 300.425 356.603 300.391C356.569 300.356 356.542 300.315 356.525 300.27L355.756 298.638L357.951 297.803C358.002 297.778 358.058 297.764 358.115 297.764C358.172 297.764 358.228 297.778 358.279 297.803L360.671 299.182Z" fill="white"/>
<path opacity="0.15" d="M352.378 302.671C352.294 302.964 352.124 303.226 351.89 303.421L348.561 305.991C348.407 306.111 348.285 306.265 348.204 306.442L345.812 305.053C345.898 304.88 346.02 304.727 346.169 304.603L349.499 302.033C349.733 301.841 349.903 301.583 349.986 301.292L352.378 302.671Z" fill="white"/>
<path opacity="0.1" d="M354.884 296.94C354.584 296.743 354.078 297.128 353.871 297.784L352.38 302.671L349.988 301.283L351.48 296.396C351.677 295.759 352.174 295.374 352.474 295.543C352.539 295.543 354.565 296.762 354.875 296.931L354.884 296.94Z" fill="black"/>
<path opacity="0.25" d="M350.615 309.415L348.242 308.045L345.832 306.301C345.551 306.094 345.588 305.532 345.832 305.072L348.224 306.46C347.98 306.91 347.942 307.483 348.224 307.689L350.615 309.415Z" fill="black"/>
<path opacity="0.15" d="M350.267 314.827C350.267 315.174 350.323 315.408 350.502 315.502L348.101 314.114C348.006 314.034 347.937 313.929 347.9 313.811C347.864 313.693 347.861 313.567 347.894 313.448L348.466 308.693C348.49 308.58 348.487 308.464 348.458 308.354C348.429 308.243 348.374 308.14 348.298 308.055L350.671 309.424C350.747 309.508 350.803 309.608 350.832 309.718C350.861 309.827 350.864 309.942 350.839 310.053L350.267 314.827Z" fill="black"/>
<path d="M355.033 297.109L356.524 300.279C356.542 300.325 356.568 300.366 356.602 300.4C356.636 300.434 356.677 300.461 356.722 300.479C356.767 300.497 356.815 300.505 356.864 300.503C356.912 300.501 356.959 300.488 357.003 300.467L360.342 299.191C360.867 298.985 361.083 299.735 360.698 300.458L358.288 304.978C358.139 305.244 358.074 305.548 358.1 305.851L358.672 309.949C358.757 310.597 358.203 311.459 357.734 311.394L354.752 311.028C354.63 311.03 354.512 311.063 354.407 311.124C354.302 311.184 354.214 311.271 354.151 311.375L351.206 315.183C350.728 315.793 350.175 315.577 350.268 314.817L350.841 310.062C350.868 309.946 350.865 309.824 350.832 309.709C350.799 309.595 350.737 309.49 350.653 309.405L348.243 307.67C347.858 307.389 348.074 306.404 348.599 305.991L351.929 303.421C352.165 303.228 352.335 302.965 352.416 302.671L353.908 297.785C354.105 297.006 354.789 296.612 355.033 297.109Z" fill="#006FDB"/>
<path opacity="0.5" d="M355.033 297.109L356.524 300.279C356.542 300.325 356.568 300.366 356.602 300.4C356.636 300.434 356.677 300.461 356.722 300.479C356.767 300.497 356.815 300.505 356.864 300.503C356.912 300.501 356.959 300.488 357.003 300.467L360.342 299.191C360.867 298.985 361.083 299.735 360.698 300.458L358.288 304.978C358.139 305.244 358.074 305.548 358.1 305.851L358.672 309.949C358.757 310.597 358.203 311.459 357.734 311.394L354.752 311.028C354.63 311.03 354.512 311.063 354.407 311.124C354.302 311.184 354.214 311.271 354.151 311.375L351.206 315.183C350.728 315.793 350.175 315.577 350.268 314.817L350.841 310.062C350.868 309.946 350.865 309.824 350.832 309.709C350.799 309.595 350.737 309.49 350.653 309.405L348.243 307.67C347.858 307.389 348.074 306.404 348.599 305.991L351.929 303.421C352.165 303.228 352.335 302.965 352.416 302.671L353.908 297.785C354.105 297.006 354.789 296.612 355.033 297.109Z" fill="white"/>
<path d="M377.469 290.797C377.76 290.253 377.703 289.7 377.469 289.55L375.087 288.171C375.034 288.144 374.976 288.131 374.918 288.131C374.859 288.131 374.801 288.144 374.749 288.171L372.564 289.015L371.832 287.477C371.802 287.4 371.746 287.336 371.673 287.298L369.281 285.91C368.981 285.742 368.484 286.126 368.287 286.764L366.73 291.679C366.645 291.971 366.475 292.232 366.242 292.429L362.912 294.999C362.378 295.412 362.171 296.406 362.547 296.678L364.966 298.422C365.049 298.508 365.109 298.613 365.14 298.728C365.171 298.842 365.173 298.963 365.145 299.079L364.582 303.834C364.535 304.181 364.629 304.416 364.788 304.5L367.152 305.841C367.339 305.944 367.611 305.841 367.874 305.532L370.857 301.724C370.919 301.62 371.007 301.533 371.112 301.472C371.217 301.412 371.336 301.379 371.457 301.377L374.439 301.743C374.908 301.799 375.462 300.945 375.377 300.298L374.815 296.199C374.784 295.896 374.85 295.591 375.002 295.327L377.469 290.797Z" fill="#006FDB"/>
<path opacity="0.15" d="M377.412 289.54C377.36 289.517 377.304 289.505 377.247 289.505C377.191 289.505 377.135 289.517 377.083 289.54L373.716 290.816C373.672 290.837 373.624 290.85 373.575 290.852C373.526 290.854 373.477 290.846 373.431 290.828C373.386 290.811 373.344 290.784 373.309 290.749C373.274 290.715 373.247 290.674 373.228 290.628L372.469 288.996L374.654 288.161C374.707 288.136 374.764 288.122 374.823 288.122C374.881 288.122 374.939 288.136 374.992 288.161L377.412 289.54Z" fill="white"/>
<path opacity="0.15" d="M369.122 293.02C369.038 293.313 368.868 293.575 368.634 293.77L365.276 296.368C365.123 296.487 365.001 296.642 364.92 296.818L362.547 295.43C362.639 295.258 362.763 295.106 362.913 294.98L366.242 292.41C366.475 292.214 366.645 291.953 366.73 291.66L369.122 293.02Z" fill="white"/>
<path opacity="0.1" d="M371.624 287.289C371.324 287.092 370.818 287.477 370.612 288.133L369.12 293.02L366.729 291.679L368.22 286.792C368.417 286.154 368.914 285.77 369.214 285.938C369.28 285.938 371.306 287.158 371.606 287.317L371.624 287.289Z" fill="black"/>
<path opacity="0.25" d="M367.358 299.754L364.985 298.394L362.575 296.65C362.303 296.443 362.34 295.88 362.575 295.421L364.976 296.809C364.732 297.259 364.695 297.831 364.976 298.028L367.358 299.754Z" fill="black"/>
<path opacity="0.15" d="M366.973 305.166C366.926 305.522 367.029 305.757 367.198 305.851L364.806 304.463C364.647 304.369 364.553 304.144 364.6 303.797L365.172 299.041C365.194 298.929 365.19 298.814 365.161 298.703C365.131 298.593 365.078 298.49 365.003 298.404L367.376 299.764C367.453 299.847 367.508 299.948 367.538 300.057C367.567 300.166 367.57 300.281 367.545 300.392L366.973 305.166Z" fill="black"/>
<path d="M371.766 287.458L373.258 290.628C373.276 290.674 373.303 290.715 373.338 290.749C373.373 290.784 373.415 290.811 373.46 290.828C373.506 290.846 373.555 290.854 373.604 290.852C373.653 290.85 373.701 290.837 373.745 290.816L377.084 289.54C377.61 289.334 377.825 290.084 377.441 290.797L375.03 295.327C374.878 295.591 374.812 295.896 374.843 296.199L375.405 300.298C375.499 300.945 374.946 301.799 374.467 301.743L371.485 301.377C371.364 301.379 371.245 301.412 371.14 301.472C371.035 301.533 370.947 301.62 370.885 301.724L367.902 305.532C367.424 306.141 366.87 305.926 366.964 305.166L367.536 300.411C367.561 300.294 367.558 300.173 367.525 300.059C367.492 299.944 367.432 299.84 367.349 299.754L364.938 298.019C364.554 297.738 364.76 296.753 365.295 296.34L368.624 293.77C368.86 293.576 369.031 293.314 369.112 293.02L370.603 288.133C370.847 287.355 371.532 286.989 371.766 287.458Z" fill="#006FDB"/>
<path opacity="0.5" d="M371.766 287.458L373.258 290.628C373.276 290.674 373.303 290.715 373.338 290.749C373.373 290.784 373.415 290.811 373.46 290.828C373.506 290.846 373.555 290.854 373.604 290.852C373.653 290.85 373.701 290.837 373.745 290.816L377.084 289.54C377.61 289.334 377.825 290.084 377.441 290.797L375.03 295.327C374.878 295.591 374.812 295.896 374.843 296.199L375.405 300.298C375.499 300.945 374.946 301.799 374.467 301.743L371.485 301.377C371.364 301.379 371.245 301.412 371.14 301.472C371.035 301.533 370.947 301.62 370.885 301.724L367.902 305.532C367.424 306.141 366.87 305.926 366.964 305.166L367.536 300.411C367.561 300.294 367.558 300.173 367.525 300.059C367.492 299.944 367.432 299.84 367.349 299.754L364.938 298.019C364.554 297.738 364.76 296.753 365.295 296.34L368.624 293.77C368.86 293.576 369.031 293.314 369.112 293.02L370.603 288.133C370.847 287.355 371.532 286.989 371.766 287.458Z" fill="white"/>
<path d="M394.184 281.146C394.465 280.602 394.418 280.048 394.184 279.898L391.764 278.548C391.711 278.524 391.653 278.511 391.595 278.511C391.537 278.511 391.479 278.524 391.426 278.548L389.231 279.392L388.509 277.854C388.48 277.777 388.423 277.713 388.35 277.675L385.958 276.287C385.658 276.118 385.151 276.503 384.964 277.141L383.473 282.027C383.387 282.32 383.218 282.581 382.985 282.778L379.646 285.348C379.121 285.76 378.905 286.745 379.289 287.026L381.7 288.771C381.787 288.854 381.85 288.958 381.883 289.074C381.916 289.189 381.917 289.311 381.887 289.428L381.315 294.183C381.315 294.53 381.372 294.755 381.531 294.849L383.923 296.237C384.12 296.34 384.392 296.237 384.654 295.927L387.628 292.119C387.691 292.014 387.78 291.926 387.887 291.866C387.994 291.805 388.114 291.773 388.237 291.772L391.21 292.138C391.689 292.194 392.242 291.341 392.148 290.694L391.586 286.595C391.556 286.293 391.618 285.989 391.764 285.723L394.184 281.146Z" fill="#006FDB"/>
<path opacity="0.15" d="M394.153 279.889C394.099 279.866 394.042 279.854 393.984 279.854C393.926 279.854 393.868 279.866 393.815 279.889L390.485 281.164C390.441 281.186 390.393 281.198 390.344 281.2C390.295 281.203 390.246 281.195 390.201 281.177C390.155 281.159 390.113 281.133 390.078 281.098C390.043 281.064 390.016 281.022 389.998 280.977L389.229 279.345L391.423 278.51C391.474 278.485 391.53 278.471 391.587 278.471C391.644 278.471 391.701 278.485 391.752 278.51L394.153 279.889Z" fill="white"/>
<path opacity="0.15" d="M385.909 283.359C385.824 283.655 385.654 283.919 385.421 284.119L382.091 286.689C381.938 286.81 381.813 286.964 381.726 287.139L379.334 285.751C379.426 285.579 379.551 285.426 379.7 285.301L383.029 282.731C383.262 282.534 383.432 282.273 383.517 281.98L385.909 283.359Z" fill="white"/>
<path opacity="0.1" d="M388.367 277.61C388.067 277.413 387.551 277.797 387.354 278.444L385.909 283.359L383.518 281.98L385.009 277.094C385.206 276.456 385.703 276.072 386.003 276.24C386.069 276.24 388.085 277.46 388.395 277.619L388.367 277.61Z" fill="black"/>
<path opacity="0.25" d="M384.09 290.103L381.726 288.743L379.287 286.989C379.015 286.783 379.043 286.22 379.287 285.76L381.679 287.148C381.445 287.599 381.407 288.171 381.679 288.368L384.09 290.103Z" fill="black"/>
<path opacity="0.15" d="M383.715 295.515C383.668 295.871 383.771 296.106 383.94 296.199L381.548 294.811C381.389 294.717 381.295 294.492 381.332 294.145L381.905 289.381C381.929 289.271 381.927 289.157 381.899 289.048C381.872 288.938 381.819 288.837 381.745 288.752L384.109 290.112C384.182 290.198 384.236 290.298 384.265 290.407C384.294 290.516 384.298 290.63 384.278 290.741L383.715 295.515Z" fill="black"/>
<path d="M388.507 277.807L389.999 280.977C390.017 281.022 390.044 281.064 390.079 281.098C390.114 281.133 390.156 281.159 390.202 281.177C390.247 281.195 390.296 281.203 390.345 281.2C390.394 281.198 390.442 281.186 390.486 281.164L393.816 279.889C394.351 279.682 394.557 280.433 394.182 281.146L391.762 285.676C391.616 285.942 391.554 286.246 391.584 286.548L392.147 290.647C392.24 291.294 391.687 292.148 391.209 292.091L388.235 291.725C388.113 291.726 387.992 291.758 387.885 291.819C387.778 291.88 387.689 291.967 387.626 292.073L384.653 295.88C384.174 296.49 383.621 296.274 383.715 295.515L384.277 290.759C384.306 290.644 384.304 290.523 384.273 290.408C384.242 290.293 384.182 290.188 384.099 290.103L381.679 288.358C381.304 288.086 381.511 287.092 382.045 286.689L385.375 284.119C385.608 283.922 385.777 283.661 385.863 283.369L387.354 278.482C387.588 277.703 388.273 277.31 388.507 277.807Z" fill="#006FDB"/>
<path opacity="0.5" d="M388.507 277.807L389.999 280.977C390.017 281.022 390.044 281.064 390.079 281.098C390.114 281.133 390.156 281.159 390.202 281.177C390.247 281.195 390.296 281.203 390.345 281.2C390.394 281.198 390.442 281.186 390.486 281.164L393.816 279.889C394.351 279.682 394.557 280.433 394.182 281.146L391.762 285.676C391.616 285.942 391.554 286.246 391.584 286.548L392.147 290.647C392.24 291.294 391.687 292.148 391.209 292.091L388.235 291.725C388.113 291.726 387.992 291.758 387.885 291.819C387.778 291.88 387.689 291.967 387.626 292.073L384.653 295.88C384.174 296.49 383.621 296.274 383.715 295.515L384.277 290.759C384.306 290.644 384.304 290.523 384.273 290.408C384.242 290.293 384.182 290.188 384.099 290.103L381.679 288.358C381.304 288.086 381.511 287.092 382.045 286.689L385.375 284.119C385.608 283.922 385.777 283.661 385.863 283.369L387.354 278.482C387.588 277.703 388.273 277.31 388.507 277.807Z" fill="white"/>
<path d="M410.914 271.494C411.204 270.95 411.158 270.397 410.914 270.247L408.531 268.859C408.478 268.835 408.421 268.823 408.363 268.823C408.304 268.823 408.247 268.835 408.194 268.859L405.999 269.703L405.277 268.165C405.245 268.087 405.189 268.021 405.117 267.977C404.817 267.818 402.791 266.636 402.726 266.598C402.425 266.43 401.919 266.814 401.722 267.452L400.231 272.339C400.149 272.631 399.983 272.892 399.752 273.089L396.413 275.659C395.888 276.071 395.672 277.056 396.057 277.338L398.467 279.082C398.553 279.164 398.615 279.267 398.648 279.381C398.681 279.494 398.683 279.615 398.655 279.729L398.083 284.485C398.083 284.832 398.139 285.066 398.299 285.16L400.69 286.548C400.878 286.651 401.159 286.548 401.413 286.239L404.395 282.431C404.457 282.326 404.545 282.24 404.65 282.179C404.755 282.118 404.874 282.086 404.995 282.084L407.978 282.449C408.456 282.506 409.01 281.652 408.916 281.005L408.344 276.906C408.322 276.604 408.387 276.301 408.531 276.034L410.914 271.494Z" fill="#006FDB"/>
<path opacity="0.15" d="M410.887 270.238C410.836 270.214 410.78 270.202 410.723 270.202C410.667 270.202 410.611 270.214 410.559 270.238L407.22 271.513C407.177 271.535 407.129 271.547 407.081 271.549C407.033 271.551 406.984 271.543 406.939 271.525C406.894 271.508 406.853 271.481 406.819 271.446C406.785 271.412 406.759 271.371 406.742 271.326L405.973 269.694L408.167 268.859C408.218 268.831 408.274 268.816 408.332 268.816C408.389 268.816 408.445 268.831 408.496 268.859L410.887 270.238Z" fill="white"/>
<path opacity="0.15" d="M402.604 273.708C402.519 274.003 402.35 274.267 402.116 274.468L398.787 277.038C398.633 277.159 398.508 277.313 398.421 277.488L396.029 276.1C396.118 275.928 396.239 275.775 396.386 275.649L399.715 273.079C399.954 272.887 400.128 272.624 400.212 272.329L402.604 273.708Z" fill="white"/>
<path opacity="0.1" d="M405.109 267.987C404.809 267.79 404.293 268.174 404.096 268.821L402.605 273.708L400.213 272.329L401.704 267.443C401.892 266.805 402.398 266.42 402.698 266.589C402.764 266.589 404.781 267.808 405.09 267.968L405.109 267.987Z" fill="black"/>
<path opacity="0.25" d="M400.831 280.423L398.467 279.063L396.057 277.319C395.775 277.113 395.813 276.55 396.057 276.09L398.448 277.478C398.204 277.929 398.176 278.501 398.448 278.698L400.831 280.423Z" fill="black"/>
<path opacity="0.15" d="M400.447 285.863C400.447 286.22 400.512 286.454 400.681 286.548L398.271 285.113C398.111 285.019 398.018 284.794 398.055 284.447L398.627 279.682C398.649 279.572 398.646 279.459 398.619 279.35C398.591 279.241 398.54 279.14 398.468 279.054L400.831 280.414C400.905 280.499 400.958 280.6 400.986 280.709C401.013 280.818 401.015 280.933 400.991 281.042L400.447 285.863Z" fill="black"/>
<path d="M405.248 268.155L406.74 271.326C406.758 271.371 406.785 271.412 406.82 271.447C406.855 271.481 406.897 271.508 406.943 271.526C406.988 271.543 407.037 271.551 407.086 271.549C407.135 271.547 407.183 271.535 407.227 271.513L410.557 270.238C411.092 270.031 411.298 270.782 410.913 271.494L408.503 276.025C408.358 276.291 408.293 276.594 408.315 276.897L408.888 280.996C408.981 281.643 408.428 282.496 407.95 282.44L404.967 282.074C404.846 282.076 404.727 282.109 404.622 282.17C404.517 282.231 404.429 282.317 404.367 282.421L401.384 286.229C400.915 286.839 400.362 286.623 400.446 285.863L401.018 281.108C401.048 280.992 401.047 280.87 401.014 280.754C400.981 280.639 400.918 280.534 400.831 280.452L398.42 278.707C398.036 278.435 398.251 277.441 398.777 277.038L402.116 274.468C402.347 274.27 402.516 274.009 402.603 273.717L404.095 268.821C404.329 268.052 405.014 267.658 405.248 268.155Z" fill="#006FDB"/>
<path opacity="0.5" d="M405.248 268.155L406.74 271.326C406.758 271.371 406.785 271.412 406.82 271.447C406.855 271.481 406.897 271.508 406.943 271.526C406.988 271.543 407.037 271.551 407.086 271.549C407.135 271.547 407.183 271.535 407.227 271.513L410.557 270.238C411.092 270.031 411.298 270.782 410.913 271.494L408.503 276.025C408.358 276.291 408.293 276.594 408.315 276.897L408.888 280.996C408.981 281.643 408.428 282.496 407.95 282.44L404.967 282.074C404.846 282.076 404.727 282.109 404.622 282.17C404.517 282.231 404.429 282.317 404.367 282.421L401.384 286.229C400.915 286.839 400.362 286.623 400.446 285.863L401.018 281.108C401.048 280.992 401.047 280.87 401.014 280.754C400.981 280.639 400.918 280.534 400.831 280.452L398.42 278.707C398.036 278.435 398.251 277.441 398.777 277.038L402.116 274.468C402.347 274.27 402.516 274.009 402.603 273.717L404.095 268.821C404.329 268.052 405.014 267.658 405.248 268.155Z" fill="white"/>
<path d="M427.656 261.843C427.947 261.299 427.9 260.746 427.656 260.586L425.265 259.208C425.213 259.184 425.157 259.172 425.1 259.172C425.044 259.172 424.988 259.184 424.936 259.208L422.741 260.052L422.019 258.513C421.981 258.44 421.927 258.375 421.86 258.326C421.55 258.166 419.524 256.985 419.468 256.947C419.159 256.778 418.662 257.153 418.465 257.801L416.973 262.687C416.892 262.982 416.722 263.244 416.486 263.438L413.109 265.998C412.574 266.411 412.368 267.396 412.753 267.677L415.163 269.422C415.248 269.504 415.31 269.607 415.343 269.72C415.376 269.834 415.379 269.954 415.351 270.069L414.797 274.796C414.797 275.143 414.854 275.377 415.013 275.471L417.405 276.859C417.592 276.963 417.874 276.859 418.127 276.55L421.11 272.742C421.172 272.638 421.26 272.551 421.365 272.49C421.47 272.43 421.588 272.397 421.71 272.395L424.692 272.761C425.161 272.817 425.715 271.963 425.63 271.316L425.058 267.217C425.031 266.914 425.097 266.61 425.246 266.345L427.656 261.843Z" fill="#006FDB"/>
<path opacity="0.15" d="M427.628 260.586C427.577 260.561 427.52 260.547 427.463 260.547C427.406 260.547 427.35 260.561 427.299 260.586L423.96 261.862C423.917 261.883 423.87 261.896 423.821 261.898C423.773 261.9 423.725 261.892 423.68 261.874C423.635 261.856 423.594 261.829 423.56 261.795C423.526 261.761 423.499 261.72 423.482 261.674L422.713 260.042L424.908 259.198C424.958 259.172 425.015 259.158 425.072 259.158C425.129 259.158 425.185 259.172 425.236 259.198L427.628 260.586Z" fill="white"/>
<path opacity="0.15" d="M419.346 264.057C419.258 264.353 419.085 264.617 418.849 264.816L415.52 267.386C415.369 267.508 415.247 267.662 415.163 267.836L412.771 266.448C412.857 266.275 412.979 266.122 413.128 265.998L416.458 263.428C416.694 263.234 416.864 262.972 416.945 262.678L419.346 264.057Z" fill="white"/>
<path opacity="0.1" d="M421.851 258.326C421.551 258.138 421.035 258.523 420.838 259.17L419.346 264.057L416.945 262.678L418.437 257.791C418.634 257.154 419.14 256.769 419.44 256.938C419.506 256.938 421.522 258.157 421.832 258.317L421.851 258.326Z" fill="black"/>
<path opacity="0.25" d="M417.574 270.8L415.201 269.44L412.791 267.696C412.51 267.489 412.547 266.927 412.791 266.467L415.183 267.855C414.939 268.305 414.901 268.878 415.183 269.075L417.574 270.8Z" fill="black"/>
<path opacity="0.15" d="M417.19 276.212C417.19 276.569 417.246 276.803 417.424 276.887L414.986 275.499C414.826 275.406 414.732 275.18 414.77 274.824L415.342 270.069C415.365 269.958 415.362 269.844 415.332 269.734C415.303 269.625 415.249 269.525 415.173 269.44L417.546 270.8C417.621 270.885 417.674 270.986 417.702 271.095C417.729 271.205 417.731 271.319 417.706 271.429L417.19 276.212Z" fill="black"/>
<path d="M421.992 258.504L423.484 261.674C423.502 261.72 423.529 261.761 423.564 261.796C423.599 261.83 423.641 261.857 423.687 261.874C423.733 261.892 423.781 261.9 423.83 261.898C423.879 261.896 423.927 261.883 423.972 261.862L427.301 260.586C427.826 260.38 428.042 261.13 427.658 261.843L425.247 266.355C425.098 266.62 425.033 266.924 425.06 267.227L425.632 271.326C425.716 271.973 425.163 272.826 424.694 272.77L421.711 272.404C421.59 272.406 421.471 272.439 421.366 272.5C421.261 272.561 421.173 272.647 421.111 272.751L418.128 276.559C417.659 277.169 417.106 276.944 417.19 276.193L417.762 271.438C417.789 271.322 417.786 271.2 417.754 271.086C417.721 270.971 417.659 270.866 417.575 270.782L415.164 269.037C414.78 268.765 414.996 267.771 415.521 267.367L418.86 264.798C419.086 264.597 419.252 264.337 419.338 264.047L420.829 259.151C421.073 258.401 421.758 257.998 421.992 258.504Z" fill="#006FDB"/>
<path opacity="0.5" d="M421.992 258.504L423.484 261.674C423.502 261.72 423.529 261.761 423.564 261.796C423.599 261.83 423.641 261.857 423.687 261.874C423.733 261.892 423.781 261.9 423.83 261.898C423.879 261.896 423.927 261.883 423.972 261.862L427.301 260.586C427.826 260.38 428.042 261.13 427.658 261.843L425.247 266.355C425.098 266.62 425.033 266.924 425.06 267.227L425.632 271.326C425.716 271.973 425.163 272.826 424.694 272.77L421.711 272.404C421.59 272.406 421.471 272.439 421.366 272.5C421.261 272.561 421.173 272.647 421.111 272.751L418.128 276.559C417.659 277.169 417.106 276.944 417.19 276.193L417.762 271.438C417.789 271.322 417.786 271.2 417.754 271.086C417.721 270.971 417.659 270.866 417.575 270.782L415.164 269.037C414.78 268.765 414.996 267.771 415.521 267.367L418.86 264.798C419.086 264.597 419.252 264.337 419.338 264.047L420.829 259.151C421.073 258.401 421.758 257.998 421.992 258.504Z" fill="white"/>
<path d="M434.043 29.9972L426.54 33.2143L424.936 41.2148C424.89 41.4346 424.784 41.6373 424.629 41.8002C424.475 41.9631 424.278 42.0798 424.061 42.1372C423.844 42.1947 423.615 42.1906 423.4 42.1254C423.185 42.0602 422.993 41.9365 422.844 41.7681L417.47 35.6247L409.357 36.5627C409.125 36.5978 408.887 36.5641 408.674 36.4655C408.46 36.367 408.281 36.208 408.157 36.0083C408.033 35.8085 407.97 35.5769 407.977 35.342C407.984 35.1071 408.059 34.8793 408.194 34.6868L412.368 27.6805L408.972 20.2615C408.89 20.0623 408.862 19.8445 408.893 19.631C408.924 19.4175 409.011 19.2162 409.146 19.0483C409.282 18.8804 409.46 18.752 409.662 18.6766C409.864 18.6013 410.083 18.5818 410.295 18.6201L418.248 20.4303L424.251 14.9059C424.416 14.7518 424.621 14.6472 424.842 14.6042C425.064 14.5612 425.293 14.5815 425.504 14.6628C425.714 14.7441 425.897 14.883 426.033 15.0637C426.168 15.2444 426.249 15.4595 426.268 15.6844L427.009 23.8069L434.118 27.8024C434.328 27.9037 434.503 28.0636 434.623 28.2628C434.743 28.462 434.803 28.6917 434.795 28.9242C434.787 29.1567 434.712 29.3819 434.578 29.5724C434.445 29.7628 434.259 29.9104 434.043 29.9972Z" fill="#E0E0E0"/>
<path d="M392.691 16.0971C392.625 16.1836 392.546 16.2596 392.457 16.3222C392.298 16.4367 392.11 16.5045 391.914 16.5177C391.719 16.531 391.523 16.4892 391.35 16.3972L387.176 14.2025L382.993 16.3972C382.82 16.4892 382.625 16.531 382.429 16.5177C382.233 16.5045 382.045 16.4367 381.886 16.3222C381.725 16.2083 381.601 16.0504 381.528 15.8673C381.454 15.6843 381.436 15.4839 381.474 15.2905L382.271 10.6008L378.885 7.30873C378.744 7.17203 378.644 6.99821 378.598 6.80734C378.551 6.61648 378.56 6.41636 378.622 6.23011C378.681 6.04349 378.792 5.87739 378.941 5.75118C379.09 5.62497 379.273 5.54386 379.467 5.51729L384.156 4.84198L386.248 0.602554C386.334 0.427471 386.467 0.280117 386.633 0.177299C386.799 0.0744804 386.99 0.0203371 387.186 0.021041C387.38 0.0224848 387.571 0.0775142 387.736 0.180093C387.902 0.282672 388.036 0.428837 388.124 0.602554L390.215 4.84198L394.905 5.51729C395.099 5.54563 395.281 5.62761 395.43 5.75397C395.58 5.88034 395.691 6.04605 395.752 6.23238C395.812 6.41872 395.82 6.61826 395.773 6.80846C395.726 6.99866 395.627 7.17194 395.486 7.30873L392.1 10.6008L392.907 15.2905C392.943 15.5772 392.866 15.8667 392.691 16.0971ZM379.345 6.35204L379.288 6.47397C379.265 6.54401 379.262 6.61928 379.281 6.6908C379.299 6.76231 379.337 6.82705 379.391 6.87728L383.012 10.4133L382.158 15.403C382.147 15.4765 382.156 15.5517 382.184 15.6204C382.213 15.689 382.26 15.7485 382.32 15.7922C382.38 15.8358 382.451 15.862 382.525 15.8678C382.599 15.8736 382.674 15.8589 382.74 15.8251L387.223 13.4709L391.697 15.8251C391.761 15.8621 391.834 15.8816 391.908 15.8816C391.982 15.8816 392.055 15.8621 392.119 15.8251C392.181 15.7824 392.23 15.7222 392.258 15.6522C392.287 15.5821 392.294 15.5052 392.279 15.4312L391.425 10.4414L395.045 6.90542C395.098 6.85393 395.135 6.78917 395.153 6.71811C395.171 6.64704 395.17 6.57236 395.149 6.50211C395.127 6.43079 395.086 6.36712 395.029 6.31885C394.973 6.27057 394.904 6.23974 394.83 6.23011L389.812 5.49853L387.523 0.921449C387.492 0.853301 387.442 0.795698 387.379 0.75571C387.315 0.715723 387.242 0.695091 387.167 0.696347C387.099 0.70381 387.034 0.728377 386.978 0.767748C386.923 0.807119 386.878 0.860005 386.848 0.921449L384.616 5.46101L379.598 6.1926C379.497 6.21303 379.407 6.26975 379.345 6.35204Z" fill="#E0E0E0"/>
<path d="M340.458 78.7693C333.395 74.68 323.687 75.2334 312.958 81.4237C291.385 93.8981 273.855 124.446 273.855 149.667C273.855 162.357 278.301 171.239 285.458 175.395C287.118 176.332 293.608 180.084 293.608 180.084C293.304 182.938 292.318 185.678 290.733 188.071C289.148 190.464 287.01 192.441 284.501 193.834C284.088 194.069 284.341 194.472 284.707 194.678L294.621 200.409C294.755 200.489 294.906 200.534 295.062 200.54C304.826 200.54 316.128 193.975 319.279 180.337C320.461 179.775 321.652 179.165 322.862 178.462C344.434 165.996 361.964 135.439 361.964 110.227C361.964 97.5279 357.528 88.6551 350.371 84.4719L340.458 78.7693Z" fill="#37474F"/>
<path d="M322.862 87.145C301.29 99.6101 283.76 130.168 283.76 155.379C283.76 172.496 291.817 182.738 303.747 183.676C303.297 189.116 301.712 195.232 294.368 199.555C293.786 199.903 294.546 200.55 295.034 200.55C304.797 200.55 316.099 193.984 319.251 180.347C320.433 179.784 321.624 179.174 322.834 178.471C344.406 166.006 361.936 135.448 361.936 110.237C361.936 85.0253 344.453 74.68 322.862 87.145Z" fill="#455A64"/>
<path d="M294.397 199.555C294.04 199.781 294.2 200.109 294.5 200.334L284.708 194.706C284.342 194.481 284.089 194.097 284.502 193.853C287.017 192.456 289.157 190.474 290.743 188.074C292.328 185.674 293.311 182.926 293.609 180.065L294.688 180.703L295.682 181.285C298.166 182.651 300.919 183.457 303.748 183.648C303.307 189.116 301.713 195.232 294.397 199.555Z" fill="#263238"/>
<path d="M318.734 159.328C317.693 158.587 317.168 157.255 317.168 155.332C317.191 153.329 317.72 151.364 318.706 149.62C319.602 147.877 320.966 146.419 322.645 145.409C324.24 144.49 325.55 144.38 326.575 145.081C327.598 145.775 328.114 147.088 328.114 149.011C328.083 151.049 327.545 153.048 326.547 154.826C325.673 156.586 324.321 158.065 322.645 159.093C321.088 159.984 319.785 160.069 318.734 159.328ZM317.337 108.342L327.945 102.217L326.172 137.971L319.109 142.051L317.337 108.342Z" fill="#FAFAFA"/>
<path opacity="0.2" d="M328.078 175.047C339.596 166.606 349.529 153.222 355.606 138.853C344.089 147.304 334.156 160.678 328.078 175.047Z" fill="black"/>
<path d="M401.724 223.913C397.728 223.96 394.755 221.165 392.888 217.648C404.856 202.932 412.951 183.329 412.951 166.184C412.951 153.475 408.495 144.546 401.32 140.419L391.425 134.717C384.363 130.637 374.664 131.199 363.944 137.38C342.372 149.855 324.842 180.403 324.842 205.624C324.842 218.314 329.278 227.196 336.435 231.37C338.104 232.308 344.679 236.116 346.302 237.063C353.373 241.181 363.1 240.637 373.848 234.428C376.727 232.752 379.459 230.838 382.018 228.706C389.277 234.456 398.131 228.19 401.639 225.189C402.108 224.795 402.164 223.913 401.724 223.913Z" fill="#E0E0E0"/>
<path d="M356.543 239.155C343.469 239.155 335.355 228.509 335.355 211.383C335.355 186.396 352.763 156.045 374.148 143.674C380.132 140.222 385.853 138.468 391.153 138.468C404.218 138.468 412.34 149.104 412.34 166.24C412.34 182.626 404.706 202.2 392.419 217.31L392.166 217.629L392.353 217.986C394.557 222.141 397.756 224.467 401.376 224.551C401.351 224.63 401.305 224.701 401.245 224.758C398.75 226.896 393.798 230.47 388.667 230.47C386.383 230.48 384.165 229.697 382.392 228.256L382.008 227.956L381.623 228.265C379.089 230.362 376.384 232.244 373.538 233.893C367.564 237.354 361.843 239.155 356.543 239.155Z" fill="#FAFAFA"/>
<path d="M391.153 137.859V139.078C403.844 139.078 411.731 149.489 411.731 166.231C411.731 182.495 404.153 201.919 391.951 216.926L391.435 217.554L391.819 218.267C393.845 222.094 396.697 224.448 399.97 225.039C397.372 227.112 393.067 229.879 388.668 229.879C386.52 229.889 384.434 229.153 382.768 227.796L381.999 227.187L381.239 227.815C378.732 229.908 376.056 231.79 373.239 233.443C367.349 236.838 361.731 238.564 356.544 238.564C343.854 238.564 335.966 228.153 335.966 211.364C335.966 186.575 353.233 156.439 374.421 144.18C380.311 140.785 385.929 139.059 391.116 139.059V137.859M391.116 137.859C385.901 137.859 380.03 139.556 373.811 143.149C352.239 155.614 334.709 186.162 334.709 211.383C334.709 229.344 343.591 239.764 356.506 239.764C361.721 239.764 367.593 238.067 373.811 234.474C376.689 232.799 379.422 230.885 381.98 228.753C383.856 230.285 386.208 231.114 388.63 231.098C393.995 231.098 399.126 227.346 401.602 225.236C402.071 224.842 402.127 223.96 401.686 223.96H401.592C397.653 223.96 394.708 221.193 392.851 217.695C404.819 202.979 412.913 183.376 412.913 166.231C412.913 148.27 404.031 137.859 391.116 137.859Z" fill="#006FDB"/>
<path d="M371.839 193.056C372.977 190.326 374.283 187.67 375.751 185.102C376.761 183.34 377.682 181.527 378.508 179.671C379.077 178.399 379.38 177.023 379.399 175.629C379.399 173.753 378.836 172.599 377.711 172.149C376.585 171.699 375.103 172.027 373.237 173.087C371.391 174.17 369.776 175.604 368.482 177.308C367.036 179.195 365.856 181.272 364.974 183.479L358.08 182.063C359.622 177.99 361.807 174.19 364.552 170.808C367.237 167.489 370.512 164.694 374.212 162.564C378.589 160.063 382.094 159.281 384.727 160.219C387.359 161.157 388.678 163.839 388.685 168.266C388.697 170.265 388.438 172.256 387.916 174.185C387.453 175.932 386.825 177.631 386.04 179.259C385.299 180.778 384.333 182.588 383.16 184.689C382.024 186.628 380.996 188.629 380.084 190.683C379.455 192.166 379.136 193.762 379.146 195.372L370.545 200.343C370.511 197.854 370.95 195.381 371.839 193.056ZM370.902 217.188C369.86 216.448 369.335 215.116 369.335 213.184C369.358 211.18 369.887 209.215 370.873 207.472C371.769 205.731 373.129 204.274 374.803 203.26C376.407 202.322 377.711 202.229 378.743 202.932C379.774 203.635 380.281 204.949 380.281 206.871C380.249 208.907 379.711 210.902 378.714 212.677C377.84 214.44 376.484 215.92 374.803 216.945C373.293 217.845 371.999 217.92 370.948 217.188H370.902Z" fill="#455A64"/>
<path d="M173.734 150.333L130.59 175.319L147.726 204.451C148.056 205.238 148.632 205.896 149.367 206.327C151.412 207.481 163.52 214.497 164.186 214.881C164.706 215.181 165.286 215.359 165.884 215.402C166.482 215.445 167.082 215.353 167.639 215.13C168.196 214.908 168.696 214.563 169.1 214.12C169.504 213.677 169.803 213.149 169.973 212.574L188.582 158.943L173.734 150.333Z" fill="#006FDB"/>
<path opacity="0.2" d="M173.734 150.333L130.59 175.319L147.726 204.451C148.056 205.238 148.632 205.896 149.367 206.327C151.412 207.481 163.52 214.497 164.186 214.881C164.706 215.181 165.286 215.359 165.884 215.402C166.482 215.445 167.082 215.353 167.639 215.13C168.196 214.908 168.696 214.563 169.1 214.12C169.504 213.677 169.803 213.149 169.973 212.574L188.582 158.943L173.734 150.333Z" fill="black"/>
<path d="M145.438 183.892L162.573 213.024C162.901 213.764 163.448 214.386 164.14 214.804C164.832 215.223 165.637 215.419 166.444 215.366C167.251 215.313 168.023 215.013 168.654 214.507C169.286 214.001 169.746 213.313 169.974 212.536L188.582 158.906L145.438 183.892Z" fill="#006FDB"/>
<path d="M221.868 0.921466L59.1658 94.836C58.075 95.5431 57.1666 96.4978 56.5147 97.6224C55.8627 98.7471 55.4856 100.01 55.4141 101.308V214.225C55.4832 215.518 55.8595 216.776 56.512 217.895C57.1644 219.014 58.0742 219.962 59.1658 220.659L72.55 228.162C73.7139 228.748 74.9987 229.053 76.3017 229.053C77.6046 229.053 78.8895 228.748 80.0534 228.162L242.765 134.191C243.854 133.483 244.761 132.528 245.413 131.403C246.065 130.279 246.443 129.017 246.517 127.72V14.8028C246.447 13.5095 246.07 12.2515 245.418 11.1327C244.765 10.0139 243.856 9.06638 242.765 8.3686L229.39 0.865191C228.219 0.286688 226.928 -0.0095381 225.622 0.000234159C224.316 0.0100064 223.03 0.325505 221.868 0.921466Z" fill="#006FDB"/>
<path opacity="0.3" d="M246.451 14.1181C246.151 12.2422 244.622 11.5669 242.755 12.6362L80.0626 106.579C78.954 107.271 78.0455 108.241 77.427 109.393L56.5957 97.5279C57.2209 96.4451 58.1036 95.5334 59.1656 94.8735L221.877 0.921465C223.042 0.338018 224.326 0.0342255 225.629 0.0342255C226.931 0.0342255 228.216 0.338018 229.38 0.921465L242.755 8.42488C243.74 9.05719 244.579 9.89192 245.216 10.8735C245.853 11.8552 246.274 12.9612 246.451 14.1181Z" fill="white"/>
<path d="M76.3203 226.399V113.473C76.3918 112.176 76.769 110.915 77.421 109.791C78.073 108.668 78.9814 107.715 80.072 107.01L242.765 13.1145C244.819 11.9233 246.516 12.8894 246.516 15.2717V128.151C246.443 129.449 246.065 130.71 245.413 131.835C244.761 132.959 243.854 133.914 242.765 134.623L80.0533 228.556C77.9898 229.776 76.3203 228.781 76.3203 226.399Z" fill="#006FDB"/>
<path opacity="0.2" d="M80.0538 228.125C78.8855 228.696 77.6024 228.992 76.3021 228.992C75.0018 228.992 73.7186 228.696 72.5504 228.125L59.1755 220.621C58.0848 219.928 57.1754 218.984 56.5229 217.868C55.8704 216.752 55.4936 215.497 55.4238 214.206V101.28C55.4904 99.9472 55.9008 98.6547 56.615 97.5279L77.4276 109.374C76.7415 110.477 76.3597 111.742 76.3208 113.041V225.958C76.3208 228.143 77.859 229.4 80.0538 228.125Z" fill="black"/>
<path d="M121.969 135.983L120.346 135.045C119.725 134.69 119.022 134.503 118.306 134.503C117.591 134.503 116.887 134.69 116.266 135.045L106.352 140.766V127.223L124.707 116.633C125.567 116.126 126.279 115.403 126.772 114.536C127.266 113.669 127.524 112.688 127.521 111.691V104.093C127.524 103.096 127.266 102.115 126.772 101.247C126.279 100.38 125.567 99.6575 124.707 99.1505C123.839 98.6482 122.854 98.3838 121.851 98.3838C120.849 98.3838 119.864 98.6482 118.996 99.1505L93.5402 113.848C92.0332 114.717 90.782 115.968 89.9125 117.474C89.0431 118.981 88.5862 120.69 88.5879 122.43V192.952C88.5836 193.952 88.8411 194.935 89.3348 195.804C89.8284 196.672 90.5411 197.397 91.4017 197.905C92.2704 198.405 93.2552 198.669 94.2577 198.669C95.2602 198.669 96.2451 198.405 97.1137 197.905L103.463 194.247C104.324 193.739 105.037 193.015 105.53 192.146C106.024 191.277 106.282 190.294 106.277 189.295V161.626L121.903 152.603C122.522 152.243 123.036 151.727 123.393 151.107C123.75 150.486 123.938 149.783 123.938 149.067V139.538C123.951 138.824 123.776 138.12 123.43 137.496C123.084 136.872 122.58 136.35 121.969 135.983Z" fill="#E0E0E0"/>
<path opacity="0.1" d="M97.6948 197.567L97.1508 197.886C96.2821 198.385 95.2976 198.648 94.2957 198.647C93.2938 198.646 92.3096 198.383 91.4416 197.882C90.5736 197.382 89.8523 196.662 89.3498 195.795C88.8473 194.929 88.5812 193.945 88.5781 192.943V122.42C88.5806 120.783 88.9899 119.171 89.7693 117.731L95.4813 121.023C94.6985 122.462 94.289 124.074 94.2901 125.713V195.579C94.2918 195.977 94.3973 196.368 94.5962 196.713C94.7951 197.058 95.0806 197.345 95.4245 197.545C95.7683 197.746 96.1586 197.854 96.5567 197.858C96.9549 197.861 97.3472 197.761 97.6948 197.567Z" fill="black"/>
<path d="M106.353 127.223V147.369L121.95 138.375C122.159 138.252 122.397 138.187 122.639 138.186C122.881 138.185 123.119 138.248 123.329 138.369C123.539 138.49 123.713 138.665 123.833 138.875C123.953 139.085 124.016 139.324 124.014 139.566V149.114C124.013 149.826 123.826 150.526 123.471 151.143C123.115 151.76 122.604 152.273 121.988 152.631L106.353 161.654V189.313C106.357 190.31 106.099 191.29 105.605 192.156C105.111 193.022 104.399 193.743 103.539 194.247L97.7613 197.586C97.4144 197.787 97.0204 197.894 96.6191 197.894C96.2179 197.894 95.8237 197.789 95.4764 197.588C95.129 197.387 94.8409 197.098 94.641 196.75C94.441 196.402 94.3365 196.008 94.3379 195.607V125.713C94.3381 123.973 94.7958 122.265 95.665 120.758C96.5342 119.252 97.7845 118.001 99.2902 117.131L124.502 102.574C124.816 102.393 125.172 102.297 125.534 102.297C125.897 102.298 126.253 102.393 126.567 102.575C126.881 102.757 127.141 103.018 127.322 103.332C127.503 103.646 127.598 104.003 127.597 104.365V111.709C127.599 112.703 127.341 113.68 126.847 114.543C126.353 115.405 125.641 116.123 124.783 116.624L106.353 127.223Z" fill="#FAFAFA"/>
<path d="M160.808 84.622C160.519 83.6428 160.012 82.7419 159.324 81.9871C158.637 81.2322 157.787 80.6431 156.839 80.2639C155.891 79.8847 154.87 79.7254 153.852 79.798C152.833 79.8705 151.845 80.173 150.96 80.6827L144.648 84.3312C143.835 84.7998 143.128 85.4332 142.574 86.1907C142.02 86.9482 141.631 87.8132 141.431 88.7301L122.606 174.438C122.459 175.16 122.542 175.911 122.843 176.584C123.144 177.256 123.648 177.818 124.285 178.19L126.011 179.184C126.546 179.492 127.152 179.655 127.77 179.655C128.387 179.655 128.994 179.492 129.528 179.184L137.135 174.794C138.193 174.146 139.056 173.222 139.63 172.121C140.271 171.01 140.742 169.808 141.027 168.557L144.085 152.931L159.467 144.049L161.061 150.399C161.287 151.227 161.803 151.946 162.515 152.425C163.153 152.8 167.589 155.342 168.227 155.726C168.639 155.903 169.091 155.964 169.535 155.905C169.979 155.845 170.399 155.667 170.75 155.389L180.036 150.024L160.808 84.622ZM148.306 131.359L151.598 114.411L151.795 113.473L155.284 127.326L148.306 131.359Z" fill="#E0E0E0"/>
<path opacity="0.1" d="M168.152 155.679C167.318 155.182 163.134 152.79 162.525 152.425C161.813 151.946 161.297 151.227 161.071 150.399L159.477 144.049L163.735 141.592L166.783 153.691C167.008 154.486 167.489 155.185 168.152 155.679Z" fill="black"/>
<path opacity="0.1" d="M160.996 130.618L155.284 127.316L151.795 113.473C151.795 113.473 151.795 113.473 151.795 113.416C152.095 112.066 152.395 110.528 152.733 108.82C153.136 106.691 153.511 104.422 153.868 101.992C154.274 103.943 154.677 105.741 155.078 107.385C155.481 109.027 155.856 110.434 156.213 111.616L160.996 130.618Z" fill="black"/>
<path opacity="0.1" d="M128.422 177.252C128.371 177.477 128.379 177.711 128.446 177.932C128.513 178.153 128.636 178.352 128.804 178.511C128.971 178.67 129.177 178.783 129.401 178.838C129.625 178.894 129.86 178.89 130.082 178.827V178.902L129.547 179.202C129.012 179.511 128.406 179.674 127.788 179.674C127.171 179.674 126.565 179.511 126.03 179.202L124.285 178.19C123.648 177.818 123.144 177.256 122.843 176.584C122.542 175.911 122.459 175.16 122.606 174.438L141.421 88.7676C141.594 87.9751 141.912 87.2214 142.359 86.5447L148.071 89.8462C147.618 90.5166 147.3 91.2683 147.133 92.0597L128.422 177.252Z" fill="black"/>
<path d="M180.043 150.052L170.748 155.417C169.707 156.017 168.873 156.129 168.235 155.754C167.524 155.274 167.008 154.556 166.781 153.728L163.733 141.61L144.036 152.95L140.988 168.576C140.694 169.829 140.22 171.032 139.581 172.149C139.01 173.25 138.147 174.171 137.086 174.813L130.361 178.705C130.135 178.834 129.877 178.894 129.617 178.879C129.357 178.864 129.107 178.775 128.897 178.621C128.687 178.468 128.526 178.257 128.433 178.014C128.34 177.771 128.319 177.506 128.373 177.252L147.085 92.0316C147.286 91.1164 147.676 90.2533 148.23 89.4974C148.784 88.7416 149.49 88.1097 150.302 87.6421L156.37 84.1343C156.802 83.8856 157.284 83.738 157.78 83.7027C158.277 83.6674 158.775 83.7452 159.238 83.9303C159.7 84.1154 160.114 84.4029 160.449 84.7713C160.785 85.1397 161.032 85.5793 161.172 86.057L180.043 150.052ZM160.994 130.637L156.211 111.597C155.854 110.424 155.479 109.008 155.076 107.367C154.672 105.725 154.269 103.925 153.866 101.974C153.519 104.403 153.134 106.663 152.74 108.802C152.346 110.94 151.952 112.779 151.596 114.373L146.85 138.759L160.994 130.637Z" fill="#FAFAFA"/>
<path d="M224.501 117.224C226.139 114.408 227.578 111.481 228.806 108.464C230.075 105.354 231.14 102.164 231.995 98.916C232.858 95.6335 233.516 92.3006 233.965 88.9365C234.425 85.5386 234.657 82.1138 234.659 78.6849C234.759 73.6437 234.114 68.6154 232.746 63.7625C231.77 60.1157 229.9 56.7696 227.306 54.0268C226.489 53.2442 225.575 52.5696 224.586 52.0197L218.958 48.7557C217.176 47.7229 215.172 47.1342 213.115 47.0393C209.813 46.8517 206.156 47.9178 202.141 50.2376C197.94 52.7047 194.217 55.9071 191.149 59.6919C187.765 63.7988 184.916 68.3181 182.67 73.1418C177.836 83.5451 175.314 94.8728 175.279 106.344C175.182 111.393 175.833 116.428 177.211 121.286C178.184 124.943 180.061 128.297 182.67 131.04C183.483 131.847 184.401 132.541 185.399 133.103C186.337 133.629 190.042 135.786 190.961 136.32C192.765 137.365 194.797 137.954 196.879 138.037C200.181 138.199 203.845 137.121 207.872 134.801C209.585 133.812 211.213 132.683 212.74 131.425L215.066 134.098C215.383 134.423 215.743 134.704 216.135 134.932C216.792 135.317 221.462 137.999 221.819 138.215C222.445 138.6 223.177 138.777 223.91 138.722C225.269 138.559 226.573 138.095 227.728 137.362L237.585 131.678L224.501 117.224ZM215.704 93.6824C215.106 96.9914 214.147 100.225 212.843 103.324C211.7 106.071 210.168 108.639 208.294 110.95C206.583 113.058 204.505 114.841 202.16 116.211C200.442 117.324 198.464 117.971 196.42 118.087C195.392 116.421 194.659 114.59 194.253 112.675C193.532 109.361 193.198 105.974 193.259 102.583C193.241 98.8275 193.574 95.0783 194.253 91.3844C194.836 88.0772 195.779 84.8439 197.067 81.7426C198.221 78.9839 199.762 76.4037 201.644 74.0797C203.367 71.9428 205.465 70.1375 207.834 68.7523C209.522 67.6733 211.462 67.0526 213.462 66.9515C214.501 68.6318 215.244 70.4782 215.657 72.4102C216.392 75.7291 216.742 79.1219 216.698 82.521C216.709 86.2765 216.376 90.0251 215.704 93.7199V93.6824Z" fill="#E0E0E0"/>
<path opacity="0.1" d="M190.727 136.217C189.535 135.533 186.262 133.629 185.399 133.141C184.401 132.578 183.483 131.884 182.67 131.077C180.061 128.335 178.184 124.981 177.211 121.323C175.833 116.465 175.182 111.43 175.279 106.382C175.279 100.606 175.927 94.8489 177.211 89.2178C178.355 84.0897 180.014 79.0902 182.163 74.2954L187.875 77.5969C183.364 87.7072 181.019 98.6498 180.991 109.721C180.893 114.766 181.544 119.798 182.923 124.653C183.894 128.314 185.772 131.672 188.382 134.417C189.095 135.101 189.881 135.705 190.727 136.217Z" fill="black"/>
<path opacity="0.1" d="M218.557 69.3901C218.005 68.6985 217.316 68.1289 216.533 67.7173C215.75 67.3056 214.89 67.0608 214.008 66.9984C213.849 66.9984 213.68 66.9984 213.52 66.9984C214.555 68.6766 215.294 70.5198 215.706 72.4477C216.423 75.7562 216.756 79.1362 216.7 82.521C216.715 86.2953 216.382 90.0629 215.706 93.7761C215.108 97.0852 214.149 100.319 212.845 103.418C211.702 106.165 210.17 108.733 208.296 111.043C206.585 113.152 204.507 114.935 202.162 116.305C200.444 117.418 198.466 118.065 196.422 118.181C196.626 118.51 196.855 118.824 197.107 119.119C197.657 119.816 198.35 120.387 199.14 120.793C199.929 121.199 200.797 121.431 201.684 121.473C203.885 121.462 206.036 120.81 207.874 119.597C210.219 118.227 212.297 116.444 214.008 114.335C215.878 112.022 217.409 109.455 218.557 106.71C219.862 103.608 220.821 100.371 221.418 97.0589C222.094 93.3457 222.427 89.5781 222.412 85.8038C222.466 82.4284 222.133 79.0579 221.418 75.7586C220.971 73.4427 219.991 71.2624 218.557 69.3901Z" fill="black"/>
<path opacity="0.1" d="M214.363 130.055C213.828 130.543 213.294 130.993 212.74 131.462L215.066 134.135C215.383 134.46 215.743 134.741 216.136 134.97C216.773 135.345 221.172 137.868 221.763 138.224C221.4 138.001 221.066 137.734 220.769 137.427L214.363 130.055Z" fill="black"/>
<path d="M237.587 131.715L227.729 137.408C226.575 138.134 225.275 138.595 223.921 138.759C223.331 138.788 222.742 138.684 222.198 138.453C221.654 138.222 221.169 137.872 220.779 137.427L214.364 130.055C212.381 131.881 210.204 133.485 207.873 134.839C203.847 137.158 200.182 138.237 196.881 138.074C193.684 137.957 190.649 136.637 188.383 134.379C185.776 131.632 183.9 128.275 182.925 124.615C181.554 119.772 180.903 114.754 180.992 109.721C181.028 98.2493 183.549 86.9216 188.383 76.5183C190.634 71.6838 193.489 67.1549 196.881 63.0403C199.951 59.2576 203.674 56.0556 207.873 53.586C211.888 51.26 215.546 50.1938 218.847 50.3877C222.031 50.5397 225.042 51.8781 227.289 54.1394C229.888 56.882 231.758 60.2324 232.728 63.8844C234.105 68.72 234.756 73.7332 234.661 78.7599C234.662 82.1886 234.433 85.6134 233.976 89.0115C233.518 92.3909 232.854 95.7393 231.988 99.0379C231.129 102.283 230.061 105.47 228.789 108.577C227.564 111.595 226.126 114.523 224.484 117.337L237.587 131.715ZM193.261 102.64C193.2 106.034 193.534 109.424 194.255 112.741C194.697 115.044 195.659 117.216 197.069 119.091C197.622 119.784 198.317 120.351 199.105 120.757C199.894 121.163 200.76 121.397 201.646 121.445C203.847 121.433 205.998 120.781 207.836 119.569C210.181 118.199 212.259 116.416 213.97 114.307C215.843 111.994 217.378 109.427 218.528 106.682C219.817 103.578 220.761 100.341 221.342 97.0308C222.024 93.3183 222.357 89.5501 222.336 85.7756C222.395 82.4 222.062 79.029 221.342 75.7304C220.902 73.4264 219.94 71.2541 218.528 69.3807C217.975 68.6889 217.284 68.1192 216.5 67.7076C215.715 67.296 214.854 67.0513 213.97 66.989C211.792 66.9711 209.658 67.5977 207.836 68.7898C205.464 70.1686 203.366 71.9712 201.646 74.1078C199.767 76.4341 198.226 79.0138 197.069 81.7707C195.785 84.8735 194.841 88.1064 194.255 91.4126C193.577 95.1035 193.244 98.8494 193.261 102.602V102.64Z" fill="#FAFAFA"/>
</svg>
