<!DOCTYPE svg PUBLIC "-//W3C//DTD SVG 1.1//EN" "http://www.w3.org/Graphics/SVG/1.1/DTD/svg11.dtd">
<!-- Uploaded to: SVG Repo, www.svgrepo.com, Transformed by: SVG Repo Mixer Tools -->
<svg fill="#000000" height="64px" width="64px" version="1.1" id="Capa_1" xmlns="http://www.w3.org/2000/svg" xmlns:xlink="http://www.w3.org/1999/xlink" viewBox="0 0 297 297" xml:space="preserve">
<g id="SVGRepo_bgCarrier" stroke-width="0"/>
<g id="SVGRepo_tracerCarrier" stroke-linecap="round" stroke-linejoin="round"/>
<g id="SVGRepo_iconCarrier"> <path d="M272.538,166.537h14.578c5.458,0,9.884-4.425,9.884-9.884v-32.616c0-5.458-4.425-9.884-9.884-9.884H44.229v-78.08h21.799 c-5.396,3.644-8.95,9.815-8.95,16.802v28.168c0,11.172,9.089,20.261,20.261,20.261h11.86c11.172,0,20.261-9.089,20.261-20.261 V52.877c0-11.172-9.089-20.261-20.261-20.261h-11.86c-1.063,0-2.098,0.107-3.117,0.265c1.623-1.761,2.623-4.106,2.623-6.69 c0-5.458-4.425-9.884-9.884-9.884H34.345c-5.458,0-9.884,4.425-9.884,9.884v87.963H9.884c-5.458,0-9.884,4.425-9.884,9.884v32.616 c0,5.458,4.425,9.884,9.884,9.884h14.578v63.714c-9.556,3.909-16.308,13.303-16.308,24.249c0,14.442,11.749,26.191,26.191,26.191 s26.191-11.749,26.191-26.191c0-10.946-6.752-20.34-16.308-24.249v-20.58l43.134-43.134h122.274l43.134,43.134v20.58 c-9.556,3.909-16.308,13.303-16.308,24.249c0,14.442,11.749,26.191,26.191,26.191c14.442,0,26.191-11.749,26.191-26.191 c0-10.946-6.752-20.34-16.308-24.249V166.537z M76.844,52.877c0-0.272,0.222-0.494,0.494-0.494h11.86 c0.272,0,0.494,0.222,0.494,0.494v28.168c0,0.272-0.222,0.494-0.494,0.494h-11.86c-0.272,0-0.494-0.222-0.494-0.494V52.877z M34.345,260.925c-3.542,0-6.424-2.882-6.424-6.424c0-3.542,2.882-6.424,6.424-6.424s6.424,2.882,6.424,6.424 C40.77,258.043,37.887,260.925,34.345,260.925z M44.229,181.716v-15.179h15.179L44.229,181.716z M262.655,260.925 c-3.542,0-6.424-2.882-6.424-6.424c0-3.542,2.882-6.424,6.424-6.424c3.542,0,6.424,2.882,6.424,6.424 C269.079,258.043,266.197,260.925,262.655,260.925z M252.771,181.716l-15.179-15.179h15.179V181.716z M277.233,146.77H19.767 v-12.849h257.466V146.77z"/> </g>
</svg>