<svg width="61" height="64" viewBox="0 0 61 64" fill="none" xmlns="http://www.w3.org/2000/svg">
<path d="M18.005 41.5188C18.7024 41.1924 19.4646 40.8739 20.2916 40.5714C19.593 41.4036 18.8449 42.2087 18.0498 42.9837C16.655 44.3252 15.569 45.0377 14.8865 45.2606C14.8298 45.2798 14.7716 45.2957 14.7121 45.3084C14.6624 45.2533 14.6191 45.1946 14.5826 45.1332C14.3036 44.6954 14.3136 44.2734 14.7819 43.7002C15.3099 43.0434 16.371 42.291 18.005 41.5188ZM30.2349 34.9627C29.6421 35.0622 29.0543 35.1617 28.4615 35.2731C29.3398 33.8985 30.1704 32.5048 30.9523 31.0935C31.7393 32.2597 32.5869 33.3991 33.4929 34.5089C32.4119 34.6362 31.3209 34.7875 30.2349 34.9627ZM42.8136 38.7005C42.0399 38.2017 41.3154 37.6561 40.6466 37.0684C41.7824 37.0883 42.8086 37.156 43.6953 37.2834C45.2745 37.5103 46.0168 37.8685 46.2758 38.1153C46.3575 38.1843 46.4037 38.2752 46.4053 38.3701C46.3879 38.6509 46.2853 38.9241 46.1064 39.1662C46.006 39.3602 45.8447 39.5302 45.6382 39.6598C45.5353 39.7102 45.4142 39.7313 45.2944 39.7195C44.8461 39.7076 44.0092 39.4568 42.8136 38.7005ZM31.7294 19.8083C31.5302 20.7796 31.1914 21.8942 30.7331 23.1083C30.5642 22.6536 30.4163 22.1942 30.2897 21.7309C29.9111 20.3258 29.8563 19.2231 30.0606 18.4588C30.2499 17.7543 30.6086 17.4716 31.037 17.3323C31.2668 17.2514 31.5101 17.1977 31.7593 17.1731C31.8241 17.2925 31.8988 17.5393 31.9187 17.9613C31.9436 18.4469 31.8839 19.0639 31.7294 19.8123V19.8083Z" fill="#D93333"/>
<path fill-rule="evenodd" clip-rule="evenodd" d="M10.4184 0.024292H50.2715C52.9139 0.024292 55.4481 0.863071 57.3166 2.35611C59.1851 3.84914 60.2348 5.87414 60.2348 7.98561V55.7535C60.2348 57.865 59.1851 59.89 57.3166 61.383C55.4481 62.876 52.9139 63.7148 50.2715 63.7148H10.4184C7.77593 63.7148 5.24173 62.876 3.37325 61.383C1.50478 59.89 0.455078 57.865 0.455078 55.7535V7.98561C0.455078 5.87414 1.50478 3.84914 3.37325 2.35611C5.24173 0.863071 7.77593 0.024292 10.4184 0.024292ZM11.2403 46.4706C11.6887 47.1871 12.3861 47.836 13.4223 48.1385C14.4535 48.4371 15.4747 48.2977 16.3116 48.0191C17.8958 47.5016 19.475 46.2835 20.9246 44.8903C22.5835 43.294 24.3271 41.2002 26.0109 38.8795C29.2615 38.1094 32.5904 37.5686 35.9592 37.2633C37.4537 38.7879 38.998 40.1016 40.4925 41.045C41.8874 41.9207 43.4964 42.6492 45.1454 42.7049C46.0436 42.7404 46.9328 42.5482 47.686 42.1556C48.4582 41.7535 49.0311 41.1724 49.4495 40.4996C49.8979 39.7791 50.1718 39.0268 50.137 38.2585C50.1054 37.5011 49.7543 36.7744 49.1406 36.1965C48.0148 35.1218 46.1716 34.6043 44.3583 34.3455C42.1586 34.0733 39.9268 34.0065 37.7078 34.1465C35.834 32.0298 34.2002 29.7838 32.8258 27.4351C34.0712 24.8079 35.0028 22.3239 35.4162 20.2938C35.5956 19.426 35.6902 18.598 35.6553 17.8497C35.6492 17.1068 35.4329 16.3747 35.0227 15.7081C34.7863 15.3402 34.4505 15.0189 34.0395 14.7676C33.6285 14.5163 33.1526 14.3412 32.6464 14.2551C31.6401 14.084 30.604 14.2551 29.6525 14.5617C27.7744 15.1588 26.783 16.4326 26.4094 17.8377C26.0458 19.1912 26.2102 20.7675 26.6386 22.3598C27.077 23.9759 27.8242 25.7354 28.7807 27.5147C27.2506 30.5551 25.4837 33.5159 23.4902 36.3796C20.9229 37.0251 18.4482 37.8857 16.1074 38.9472C14.2642 39.8229 12.6252 40.8579 11.6389 42.0799C10.5927 43.3776 10.2689 44.9221 11.2403 46.4706Z" fill="#D93333"/>
</svg>
