<svg width="20" height="13" viewBox="0 0 20 13" fill="none" xmlns="http://www.w3.org/2000/svg">
<path fill-rule="evenodd" clip-rule="evenodd" d="M13 4.2281L18.646 2.0911C18.7974 2.03379 18.9605 2.0141 19.1212 2.03372C19.2819 2.05334 19.4355 2.1117 19.5686 2.20376C19.7018 2.29583 19.8107 2.41885 19.8858 2.56227C19.9609 2.70568 20.0001 2.8652 20 3.0271V10.1361C19.9999 10.2976 19.9607 10.4568 19.8858 10.5998C19.8108 10.7429 19.7023 10.8657 19.5695 10.9577C19.4367 11.0497 19.2836 11.1082 19.1233 11.1281C18.963 11.148 18.8003 11.1288 18.649 11.0721L13 8.9541V10.5791C13 11.1095 12.7893 11.6182 12.4142 11.9933C12.0391 12.3684 11.5304 12.5791 11 12.5791H2C1.46957 12.5791 0.960859 12.3684 0.585786 11.9933C0.210714 11.6182 0 11.1095 0 10.5791V2.5791C0 2.04867 0.210714 1.53996 0.585786 1.16489C0.960859 0.789815 1.46957 0.579102 2 0.579102H11C11.5304 0.579102 12.0391 0.789815 12.4142 1.16489C12.7893 1.53996 13 2.04867 13 2.5791V4.2281Z" fill="#004080"/>
</svg>
