<svg width="25" height="24" viewBox="0 0 25 24" fill="none" xmlns="http://www.w3.org/2000/svg">
<g clip-path="url(#clip0_1447_5161)">
<path fill-rule="evenodd" clip-rule="evenodd" d="M5.75 7.5C5.15326 7.5 4.58097 7.73705 4.15901 8.15901C3.73705 8.58097 3.5 9.15326 3.5 9.75L3.5 15C3.5 15.5967 3.73705 16.169 4.15901 16.591C4.58097 17.0129 5.15326 17.25 5.75 17.25H19.25C19.8467 17.25 20.419 17.0129 20.841 16.591C21.2629 16.169 21.5 15.5967 21.5 15V9.75C21.5 9.15326 21.2629 8.58097 20.841 8.15901C20.419 7.73705 19.8467 7.5 19.25 7.5H5.75ZM10.25 9H8.75V12.75C8.75 12.9489 8.67098 13.1397 8.53033 13.2803C8.38968 13.421 8.19891 13.5 8 13.5C7.80109 13.5 7.61032 13.421 7.46967 13.2803C7.32902 13.1397 7.25 12.9489 7.25 12.75V9H5.75C5.55109 9 5.36032 9.07902 5.21967 9.21967C5.07902 9.36032 5 9.55109 5 9.75V15C5 15.1989 5.07902 15.3897 5.21967 15.5303C5.36032 15.671 5.55109 15.75 5.75 15.75H19.25C19.4489 15.75 19.6397 15.671 19.7803 15.5303C19.921 15.3897 20 15.1989 20 15V9.75C20 9.55109 19.921 9.36032 19.7803 9.21967C19.6397 9.07902 19.4489 9 19.25 9H17.75V11.25C17.75 11.4489 17.671 11.6397 17.5303 11.7803C17.3897 11.921 17.1989 12 17 12C16.8011 12 16.6103 11.921 16.4697 11.7803C16.329 11.6397 16.25 11.4489 16.25 11.25V9H14.75V12.75C14.75 12.9489 14.671 13.1397 14.5303 13.2803C14.3897 13.421 14.1989 13.5 14 13.5C13.8011 13.5 13.6103 13.421 13.4697 13.2803C13.329 13.1397 13.25 12.9489 13.25 12.75V9H11.75V11.25C11.75 11.4489 11.671 11.6397 11.5303 11.7803C11.3897 11.921 11.1989 12 11 12C10.8011 12 10.6103 11.921 10.4697 11.7803C10.329 11.6397 10.25 11.4489 10.25 11.25V9Z" fill="#004080"/>
</g>
<defs>
<clipPath id="clip0_1447_5161">
<rect width="18" height="18" fill="white" transform="translate(3.5 3)"/>
</clipPath>
</defs>
</svg>
