<svg width="23" height="23" viewBox="0 0 23 23" fill="none" xmlns="http://www.w3.org/2000/svg">
<path fill-rule="evenodd" clip-rule="evenodd" d="M11.3581 2.93066C9.45455 2.93066 9.27459 6.24616 8.14132 7.41759C7.00806 8.58902 3.48487 7.24964 2.99537 9.32887C2.50689 11.4092 5.67632 12.115 6.0671 13.8998C6.45994 15.6845 4.52352 18.1922 6.17817 19.4401C7.83281 20.687 9.61395 17.8648 11.3581 17.8648C13.1022 17.8648 14.8833 20.687 16.538 19.4401C18.1926 18.1922 16.2572 15.6845 16.649 13.8998C17.0408 12.115 20.2092 11.4092 19.7208 9.32887C19.2323 7.24964 15.7081 8.58902 14.5758 7.41759C13.4426 6.24616 13.2616 2.93066 11.3581 2.93066Z" fill="#112950" stroke="#112950" stroke-width="1.40229" stroke-linecap="round" stroke-linejoin="round"/>
</svg>
