<svg width="12" height="11" viewBox="0 0 12 11" fill="none" xmlns="http://www.w3.org/2000/svg">
<path fill-rule="evenodd" clip-rule="evenodd" d="M6.3789 0.4375C5.23357 0.4375 5.12529 2.43242 4.44341 3.13726C3.76153 3.8421 1.64164 3.0362 1.34711 4.28727C1.0532 5.53897 2.96023 5.96366 3.19536 7.03755C3.43173 8.11145 2.26659 9.62027 3.26219 10.3712C4.25778 11.1214 5.32948 9.42327 6.3789 9.42327C7.42833 9.42327 8.50003 11.1214 9.49562 10.3712C10.4912 9.62027 9.32669 8.11145 9.56244 7.03755C9.79819 5.96366 11.7046 5.53897 11.4107 4.28727C11.1168 3.0362 8.99627 3.8421 8.31501 3.13726C7.63314 2.43242 7.52423 0.4375 6.3789 0.4375Z" fill="#EED452" stroke="#EED452" stroke-width="0.84375" stroke-linecap="round" stroke-linejoin="round"/>
</svg>
