<svg width="25" height="24" viewBox="0 0 25 24" fill="none" xmlns="http://www.w3.org/2000/svg">
<path d="M20.2143 0H4.78571C3.64907 0 2.55898 0.451529 1.75526 1.25526C0.951529 2.05898 0.5 3.14907 0.5 4.28571V19.7143C0.5 20.8509 0.951529 21.941 1.75526 22.7447C2.55898 23.5485 3.64907 24 4.78571 24H20.2143C21.3509 24 22.441 23.5485 23.2447 22.7447C24.0485 21.941 24.5 20.8509 24.5 19.7143V4.28571C24.5 3.14907 24.0485 2.05898 23.2447 1.25526C22.441 0.451529 21.3509 0 20.2143 0ZM22.7857 19.7143C22.7857 20.3963 22.5148 21.0503 22.0326 21.5326C21.5503 22.0148 20.8963 22.2857 20.2143 22.2857H4.78571C4.10373 22.2857 3.44968 22.0148 2.96744 21.5326C2.4852 21.0503 2.21429 20.3963 2.21429 19.7143V4.28571C2.21429 3.60373 2.4852 2.94968 2.96744 2.46744C3.44968 1.9852 4.10373 1.71429 4.78571 1.71429H20.2143C20.8963 1.71429 21.5503 1.9852 22.0326 2.46744C22.5148 2.94968 22.7857 3.60373 22.7857 4.28571V19.7143ZM20.8829 7.56C19.6916 6.16709 18.2117 5.04986 16.5457 4.28571C15.2659 3.73749 13.888 3.45481 12.4957 3.45481C11.1034 3.45481 9.72556 3.73749 8.44571 4.28571C6.79666 5.06505 5.33491 6.1906 4.16 7.58571C4.08961 7.67432 4.03747 7.77599 4.00657 7.88486C3.97568 7.99372 3.96665 8.10763 3.98 8.22C3.99256 8.33186 4.02704 8.44015 4.08145 8.53869C4.13587 8.63722 4.20916 8.72407 4.29714 8.79429L8.15429 11.8371C8.24706 11.9147 8.35609 11.9704 8.47331 12.0001C8.59053 12.0297 8.71293 12.0326 8.83143 12.0086C8.95095 11.9878 9.06471 11.942 9.16518 11.874C9.26566 11.806 9.35056 11.7175 9.41429 11.6143C9.72106 11.0581 10.1664 10.5906 10.707 10.2572C11.2477 9.92385 11.8653 9.73583 12.5 9.71143C13.1395 9.72591 13.7643 9.9066 14.3129 10.2357C14.8614 10.5649 15.3148 11.0311 15.6286 11.5886C15.6923 11.6918 15.7772 11.7803 15.8777 11.8483C15.9781 11.9163 16.0919 11.9621 16.2114 11.9829C16.2596 11.9917 16.309 11.9917 16.3571 11.9829C16.5505 11.9817 16.7378 11.9153 16.8886 11.7943L20.7457 8.75143C20.8337 8.68122 20.907 8.59436 20.9614 8.49583C21.0158 8.39729 21.0503 8.289 21.0629 8.17714C21.0852 7.95587 21.0207 7.73457 20.8829 7.56ZM16.52 9.91714C15.7168 8.94971 14.5957 8.29952 13.3571 8.08286V6.85714C13.3571 6.62981 13.2668 6.4118 13.1061 6.25105C12.9453 6.09031 12.7273 6 12.5 6C12.2727 6 12.0547 6.09031 11.8939 6.25105C11.7332 6.4118 11.6429 6.62981 11.6429 6.85714V8.08286C10.4043 8.29952 9.28317 8.94971 8.48 9.91714L6.03714 7.98857C6.93654 7.09805 7.98346 6.37014 9.13143 5.83714C10.1962 5.38208 11.3421 5.14747 12.5 5.14747C13.6579 5.14747 14.8038 5.38208 15.8686 5.83714C17.0165 6.37014 18.0635 7.09805 18.9629 7.98857L16.52 9.91714Z" fill="#004080"/>
</svg>
